<svg width="146" height="146" viewBox="0 0 146 146" fill="none" xmlns="http://www.w3.org/2000/svg">
<g filter="url(#filter0_ddiiii)">
<path d="M3 63.6578C3 54.3124 4.99372 44.967 9.44126 36.2344C12.9686 29.187 17.8763 23.3653 23.7041 18.1564C27.5382 14.6327 31.8323 11.7218 36.4332 9.42378C42.8745 6.20651 49.6225 4.06166 56.8306 3.44885C64.9588 2.52963 72.9337 2.98924 80.7553 5.13409C88.8835 7.43214 96.245 11.2622 102.686 16.6243C111.888 24.2845 118.636 33.4767 122.317 44.8138C124.157 50.6355 125.077 56.6104 125.231 62.7385C125.384 70.3987 124.31 77.9057 121.703 85.1062C119.863 90.1619 117.256 94.9112 114.189 99.3541C113.115 100.733 113.115 100.427 114.342 101.652C122.93 110.232 131.672 118.964 140.26 127.544C145.168 132.446 143.174 140.413 136.733 142.557C133.359 143.63 130.292 142.711 127.684 140.259C119.096 131.527 110.354 122.794 101.613 114.062C100.999 113.449 100.539 113.296 99.7723 113.908C91.4907 119.883 82.4423 123.56 72.3203 124.633C61.7382 125.858 51.3095 124.939 41.3409 120.956C34.5929 118.198 28.6117 114.368 23.244 109.466C17.2628 104.103 12.5085 97.9753 8.98117 90.7748C5.76054 84.0338 3.92018 76.9865 3.15336 69.6327C3 67.7943 3 65.9558 3 63.6578ZM107.747 64.1174C108.361 40.5241 87.9634 20.6076 64.4987 20.4544C40.4207 20.3012 20.6368 40.6773 20.4834 63.811C20.4834 87.5575 40.4207 107.627 64.192 107.627C87.9634 107.627 108.207 87.5575 107.747 64.1174Z" fill="#FAF3EE"/>
<path d="M64.0386 100.58C57.444 100.58 51.1561 99.0477 45.4817 95.5241C40.8808 92.6132 36.8933 88.9363 33.8261 84.4934C33.2126 83.7274 33.2126 83.5742 34.1328 83.2678C38.427 81.4294 42.7211 79.8973 47.0153 78.3653C48.2422 77.9057 49.4691 77.2929 50.8494 76.8333C52.9965 76.0672 53.9167 74.382 54.6835 72.3904C55.1436 71.0115 54.9902 69.9391 54.07 68.7135C50.2359 64.577 48.3956 59.5213 47.9355 54.0059C47.6288 50.4823 47.6288 46.9586 48.7023 43.4349C50.5427 36.694 55.2969 33.1703 61.8916 32.5575C64.6521 32.2511 67.4126 32.5575 70.0198 33.6299C74.9275 35.4683 77.5346 39.1452 78.7616 43.8945C79.8351 47.8778 79.6817 52.0143 79.0683 55.9976C78.3015 61.0533 76.1544 65.343 72.7804 69.1731C72.3203 69.6327 72.1669 70.2455 72.3203 70.8583C72.627 72.2372 73.0871 73.4628 73.7006 74.6884C74.1606 75.3012 74.6207 75.914 75.3875 76.2204C78.9149 77.9057 82.749 79.1313 86.4297 80.5101C88.5768 81.2762 90.7239 82.1954 92.7176 82.9614C94.8647 83.8806 94.8647 84.187 93.4844 85.8723C90.1105 90.3151 85.9696 93.992 80.9086 96.4433C76.9212 98.5881 72.627 99.8138 68.0261 100.12C66.6458 100.58 65.4189 100.58 64.0386 100.58Z" fill="#FAF3EE"/>
</g>
<defs>
<filter id="filter0_ddiiii" x="-1" y="-1" width="148" height="148" filterUnits="userSpaceOnUse" color-interpolation-filters="sRGB">
<feFlood flood-opacity="0" result="BackgroundImageFix"/>
<feColorMatrix in="SourceAlpha" type="matrix" values="0 0 0 0 0 0 0 0 0 0 0 0 0 0 0 0 0 0 127 0"/>
<feOffset dx="-1" dy="-1"/>
<feGaussianBlur stdDeviation="1"/>
<feColorMatrix type="matrix" values="0 0 0 0 0.870588 0 0 0 0 0.85098 0 0 0 0 0.835294 0 0 0 0.5 0"/>
<feBlend mode="normal" in2="BackgroundImageFix" result="effect1_dropShadow"/>
<feColorMatrix in="SourceAlpha" type="matrix" values="0 0 0 0 0 0 0 0 0 0 0 0 0 0 0 0 0 0 127 0"/>
<feOffset dx="1" dy="1"/>
<feGaussianBlur stdDeviation="1"/>
<feColorMatrix type="matrix" values="0 0 0 0 1 0 0 0 0 1 0 0 0 0 1 0 0 0 0.3 0"/>
<feBlend mode="normal" in2="effect1_dropShadow" result="effect2_dropShadow"/>
<feBlend mode="normal" in="SourceGraphic" in2="effect2_dropShadow" result="shape"/>
<feColorMatrix in="SourceAlpha" type="matrix" values="0 0 0 0 0 0 0 0 0 0 0 0 0 0 0 0 0 0 127 0" result="hardAlpha"/>
<feOffset dx="4" dy="4"/>
<feGaussianBlur stdDeviation="5"/>
<feComposite in2="hardAlpha" operator="arithmetic" k2="-1" k3="1"/>
<feColorMatrix type="matrix" values="0 0 0 0 0.870588 0 0 0 0 0.85098 0 0 0 0 0.835294 0 0 0 0.9 0"/>
<feBlend mode="normal" in2="shape" result="effect3_innerShadow"/>
<feColorMatrix in="SourceAlpha" type="matrix" values="0 0 0 0 0 0 0 0 0 0 0 0 0 0 0 0 0 0 127 0" result="hardAlpha"/>
<feOffset dx="-4" dy="-4"/>
<feGaussianBlur stdDeviation="4"/>
<feComposite in2="hardAlpha" operator="arithmetic" k2="-1" k3="1"/>
<feColorMatrix type="matrix" values="0 0 0 0 1 0 0 0 0 1 0 0 0 0 1 0 0 0 0.9 0"/>
<feBlend mode="normal" in2="effect3_innerShadow" result="effect4_innerShadow"/>
<feColorMatrix in="SourceAlpha" type="matrix" values="0 0 0 0 0 0 0 0 0 0 0 0 0 0 0 0 0 0 127 0" result="hardAlpha"/>
<feOffset dx="4" dy="-4"/>
<feGaussianBlur stdDeviation="4"/>
<feComposite in2="hardAlpha" operator="arithmetic" k2="-1" k3="1"/>
<feColorMatrix type="matrix" values="0 0 0 0 0.870588 0 0 0 0 0.85098 0 0 0 0 0.835294 0 0 0 0.2 0"/>
<feBlend mode="normal" in2="effect4_innerShadow" result="effect5_innerShadow"/>
<feColorMatrix in="SourceAlpha" type="matrix" values="0 0 0 0 0 0 0 0 0 0 0 0 0 0 0 0 0 0 127 0" result="hardAlpha"/>
<feOffset dx="-4" dy="4"/>
<feGaussianBlur stdDeviation="4"/>
<feComposite in2="hardAlpha" operator="arithmetic" k2="-1" k3="1"/>
<feColorMatrix type="matrix" values="0 0 0 0 0.870588 0 0 0 0 0.85098 0 0 0 0 0.835294 0 0 0 0.2 0"/>
<feBlend mode="normal" in2="effect5_innerShadow" result="effect6_innerShadow"/>
</filter>
</defs>
</svg>
