<svg width="17" height="16" viewBox="0 0 17 16" fill="none" xmlns="http://www.w3.org/2000/svg">
<path d="M13 4.60017V1.62536C12.9996 1.45973 12.9337 1.30097 12.8167 1.18379C12.6996 1.06661 12.541 1.00053 12.3753 1H4.62533C4.45971 1.00035 4.30096 1.06626 4.18378 1.18332C4.0666 1.30038 4.00053 1.45906 4 1.6247V4.5995L1 6.74227V15H16V6.74227L13 4.60017ZM14.6773 7.02695L13 8.12367V5.8289L14.6773 7.02695ZM5 2.00005H12V8.7777L10.2133 9.94576L8.758 9.19106L7.17133 9.95709L5 8.63836V2.00005ZM8.742 10.3098L15 13.5546V14.0006H2V13.5646L8.742 10.3098ZM2 7.987L6.098 10.4751L2 12.4539V7.987ZM11.2327 10.4745L15 8.011V12.4279L11.2327 10.4745ZM4 5.8289V8.03167L2.33333 7.01962L4 5.8289Z" fill="#E7792B" stroke="#E7792B" stroke-width="0.5"/>
</svg>
