<svg width="114" height="121" viewBox="0 0 114 121" fill="none" xmlns="http://www.w3.org/2000/svg">
<path d="M98.5596 19.6287L98.5486 19.6182C98.8965 19.2589 99.086 18.7846 99.0776 18.2944C99.0691 17.8043 98.8634 17.3363 98.5034 16.9881L95.6912 14.2925C95.328 13.9473 94.8398 13.7502 94.3284 13.7421C93.8171 13.734 93.3224 13.9157 92.9475 14.2491L92.9352 14.2373L80.8235 25.8486C80.4507 26.2061 80.2412 26.6909 80.2412 27.1964C80.2412 27.7019 80.4507 28.1867 80.8235 28.5443L83.6357 31.2413H83.637C84.01 31.5986 84.5158 31.7994 85.0431 31.7994C85.5705 31.7994 86.0762 31.5986 86.4492 31.2413L98.5596 19.6287Z" fill="white"/>
<path d="M55.0055 20.1553V20.1566H58.982V20.1553C60.0532 20.1553 60.9202 19.3425 60.9627 18.3262H60.9709V1.90917C60.9709 0.856107 60.0806 0.00262622 58.982 0.00262622V0H55.0055V0.00131295C53.9069 0.00131295 53.0165 0.854794 53.0165 1.90786V18.3262H53.0248C53.0446 18.8173 53.2618 19.2819 53.6311 19.6229C54.0003 19.9639 54.4928 20.1546 55.0055 20.1553Z" fill="white"/>
<path d="M114 47.3654C114 46.3373 113.152 45.5074 112.092 45.4667V45.4589H94.964C93.8654 45.4589 92.9751 46.311 92.9751 47.3654V51.1772C92.9751 52.2316 93.8654 53.0851 94.964 53.0851H112.092V53.0772C112.604 53.0579 113.089 52.8493 113.445 52.4952C113.8 52.141 113.999 51.6688 114 51.1772V47.3654Z" fill="white"/>
<path d="M57.0011 26.6245C40.8979 26.6245 27.8451 39.1365 27.8451 54.5727C27.8423 60.3885 29.7434 66.0585 33.2804 70.7836H33.2695C37.6172 77.2858 40.3335 85.8994 40.5335 95.3888C40.8828 95.939 41.5074 96.3119 42.2279 96.3119C42.3046 96.3119 42.3772 96.2988 42.4512 96.2896V96.3119H71.4524V96.2896C71.5264 96.2974 71.599 96.3119 71.6744 96.3119C72.0476 96.3109 72.413 96.2091 72.7287 96.0182C73.0444 95.8274 73.2975 95.5551 73.4592 95.2326C73.6989 85.2744 76.707 76.2866 81.4629 69.7082C84.4134 65.3437 86.1572 60.1624 86.1572 54.574C86.1572 39.1365 73.1044 26.6245 57.0011 26.6245Z" fill="white"/>
<path d="M71.6732 112.744C71.5965 112.744 71.5252 112.757 71.4513 112.766V112.744H42.45V112.766C42.376 112.758 42.3034 112.744 42.2267 112.744C41.1295 112.744 40.2378 113.596 40.2378 114.65V119.093C40.2378 120.147 41.1282 121 42.2267 121C42.3034 121 42.376 120.987 42.45 120.978V121H71.4513V120.979C71.5252 120.987 71.5978 121 71.6732 121C72.7717 121 73.6621 120.147 73.6621 119.093V114.65C73.6621 113.596 72.7717 112.744 71.6732 112.744Z" fill="white"/>
<path d="M71.6732 100.348C71.5965 100.348 71.5252 100.361 71.4513 100.371V100.348H42.45V100.371C42.376 100.363 42.3034 100.348 42.2267 100.348C41.7116 100.349 41.217 100.542 40.8472 100.885C40.4774 101.229 40.2613 101.697 40.2446 102.19L40.2378 102.265V106.698C40.2378 107.751 41.1282 108.605 42.2267 108.605C42.3034 108.605 42.376 108.591 42.45 108.582V108.605H71.4513V108.584C71.5252 108.591 71.5978 108.606 71.6732 108.606C72.7717 108.606 73.6621 107.752 73.6621 106.699V102.255C73.6621 101.2 72.7717 100.348 71.6732 100.348Z" fill="white"/>
<path d="M19.1182 46.9558V46.9479H1.98894C0.890365 46.9479 0 47.8014 0 48.8531V52.6662C0 53.718 0.890365 54.5714 1.98894 54.5714H19.1182V54.5649C19.6301 54.5456 20.1145 54.3374 20.4701 53.9838C20.8257 53.6302 21.025 53.1586 21.0263 52.6675V48.8531C21.025 48.362 20.8257 47.8904 20.4701 47.5368C20.1145 47.1833 19.6301 46.9751 19.1182 46.9558Z" fill="white"/>
<path d="M16.1753 19.0272L28.2871 30.6385L28.2994 30.6267C29.0788 31.3134 30.2856 31.3082 31.0417 30.5834H31.0431L33.8553 27.8864C34.2156 27.5384 34.4215 27.0703 34.43 26.5801C34.4384 26.0898 34.2486 25.6155 33.9005 25.2563L33.9128 25.2445L21.7997 13.6346C21.4266 13.2775 20.9209 13.077 20.3936 13.077C19.8664 13.077 19.3607 13.2775 18.9875 13.6346L16.1753 16.3302C15.8024 16.688 15.593 17.173 15.593 17.6787C15.593 18.1845 15.8024 18.6695 16.1753 19.0272Z" fill="white"/>
</svg>
