<svg width="60" height="60" viewBox="0 0 60 60" fill="none" xmlns="http://www.w3.org/2000/svg">
<path d="M59.0629 7.76991C58.1258 7.76991 51.0551 7.86058 47.6476 11.8504C46.7957 11.9411 45.7734 12.1224 44.8363 12.3944C41.0028 13.6639 37.8508 16.6563 36.6581 20.0113C36.4026 20.7368 36.2322 21.4622 36.147 22.1876C36.0618 22.641 36.4026 23.0944 36.9137 23.185H36.9989C37.4248 23.185 37.7656 22.8223 37.8508 22.3689C37.936 21.7342 38.0212 21.1901 38.2767 20.5554C39.2138 17.7444 42.1102 15.2054 45.4326 14.0266C45.7734 13.936 46.1141 13.8453 46.4549 13.7546V13.8453C45.8586 15.3868 45.3474 18.3791 46.966 19.83C47.9031 20.7368 49.5217 21.0995 51.0551 20.7368C52.4182 20.374 53.5256 19.6486 53.9516 18.5605C54.8035 16.5656 53.5256 14.0266 51.8218 12.7572C51.3107 12.3944 50.7144 12.1224 50.118 11.9411C53.4404 9.49277 59.0629 9.49277 59.1481 9.49277C59.6592 9.49277 60 9.13007 60 8.586C59.9148 8.13262 59.4889 7.76991 59.0629 7.76991ZM50.7996 14.2987C51.9922 15.1148 52.7589 16.9283 52.333 17.8351C52.0774 18.3791 51.4811 18.8325 50.6292 19.0139C49.6069 19.2859 48.5846 19.1046 48.0735 18.5605C47.3068 17.8351 47.5624 15.7495 48.0735 14.5707C48.2439 14.208 48.4143 13.936 48.5846 13.5733C49.3513 13.6639 50.2032 13.8453 50.7996 14.2987Z" fill="#E7792B"/>
<path d="M58.1258 23.9105C57.1888 23.7291 50.2032 22.4596 46.1993 25.724C45.3474 25.6333 44.3252 25.6333 43.3029 25.724C40.7472 26.1774 38.1915 27.3562 36.3174 28.9884C35.5507 27.8096 34.784 26.7215 33.7617 25.6333C31.0356 22.5503 27.9688 20.5554 25.2428 19.7393C25.5835 17.6537 26.4354 15.3868 27.7984 13.5732C28.054 13.2105 28.3096 12.9385 28.48 12.6665V12.7572C28.8207 14.3893 29.9282 17.1097 32.0579 17.4724C33.3357 17.6537 34.784 17.019 35.8914 15.7495C36.9137 14.6614 37.3396 13.3012 37.0841 12.2131C36.7433 10.1275 34.358 8.76736 32.3135 8.76736C31.7171 8.76736 31.1208 8.85803 30.5245 9.13006C31.9727 5.14027 36.6581 1.78521 36.6581 1.69453C37.0841 1.4225 37.1693 0.878435 36.9137 0.425049C36.6581 -0.0283371 36.147 -0.119014 35.721 0.153018C34.9543 0.697082 29.1615 5.04959 28.3948 10.3089C27.7133 10.8529 27.0317 11.5784 26.3502 12.4851C24.8168 14.5707 23.8797 17.019 23.4538 19.3766C21.6648 19.1952 20.1314 19.558 19.0239 20.7368C18.6832 21.0088 18.5128 21.3715 18.2572 21.7342L18.1721 21.9156C18.1721 22.0062 18.0869 22.0062 18.0869 22.0969L0.111914 58.3678C-0.0584647 58.8212 -0.0584648 59.2746 0.282292 59.6373C0.452671 59.8186 0.793428 60 1.049 60C1.21937 60 1.38975 60 1.47494 59.9093L35.1247 42.6806C35.9766 42.4993 36.8285 42.1366 37.4248 41.5018C38.9582 39.9603 39.3842 37.4214 38.5323 34.3383C38.1915 33.1595 37.6804 31.8901 37.0841 30.6206C38.7879 29.0791 41.088 27.9909 43.4733 27.6282C43.814 27.5375 44.24 27.5375 44.5807 27.5375C44.5807 27.5375 44.5807 27.5375 44.5807 27.6282C43.7288 28.9884 42.7066 31.7994 44.0696 33.6129C44.8363 34.6104 46.1993 35.2451 47.7327 35.2451C47.8179 35.2451 47.9031 35.2451 47.9031 35.2451C49.3513 35.1544 50.544 34.6104 51.1403 33.6129C52.2478 31.8901 51.4811 29.0791 50.0329 27.5375C49.6069 27.0842 49.0958 26.7215 48.4994 26.4494C52.1626 24.7266 57.6999 25.724 57.7851 25.724C58.211 25.8147 58.7222 25.452 58.8074 24.9986C58.8925 24.4545 58.637 24.0011 58.1258 23.9105ZM32.3987 10.3995C33.8469 10.3995 35.3803 11.397 35.5507 12.3944C35.6359 12.9385 35.3803 13.7546 34.784 14.3893C34.1025 15.2054 33.1654 15.6588 32.3987 15.5682C31.2912 15.3868 30.5245 13.5732 30.2689 12.3038C30.1837 11.9411 30.1837 11.5784 30.1837 11.2156C30.8653 10.6716 31.7172 10.3995 32.3987 10.3995ZM4.62695 54.8314C4.45657 54.65 4.28619 54.4687 4.201 54.2873L5.56403 51.4763C5.90479 51.9297 6.24554 52.3831 6.67149 52.8365C7.18263 53.3806 7.69376 53.9246 8.29009 54.4687L5.64922 55.8288C5.22327 55.5568 4.88252 55.1941 4.62695 54.8314ZM11.1013 48.3026C10.1643 47.3052 9.39755 46.2171 8.71603 45.0383L10.1643 42.1366C11.0161 43.5874 11.9532 44.9476 13.1459 46.3077C14.3385 47.6679 15.7016 48.9374 17.1498 49.9348L14.3385 51.295C13.2311 50.4789 12.1236 49.4814 11.1013 48.3026ZM17.6609 41.7739C15.8719 39.779 14.4237 37.4214 13.657 35.2451L15.1904 32.1621C16.0423 34.701 17.6609 37.4214 19.7055 39.779C21.6648 42.0459 24.2205 43.9501 26.6058 45.1289L23.7094 46.5798C21.6648 45.4916 19.3647 43.7688 17.6609 41.7739ZM36.4026 40.051C34.1025 42.3179 28.5651 40.1417 24.2205 35.1544C20.387 30.8926 18.598 25.724 19.7055 22.913L19.7906 22.8223C19.961 22.4596 20.1314 22.1876 20.387 21.9156C20.9833 21.2808 21.8352 21.0088 22.8575 21.0088C23.113 21.0088 23.3686 21.0088 23.539 21.0995C23.539 21.9156 23.6242 22.7317 23.7945 23.5477C23.9649 24.2732 24.2205 24.9986 24.5612 25.6333C24.7316 25.9054 24.9872 26.0867 25.328 26.0867C25.4983 26.0867 25.5835 26.0867 25.7539 25.996C26.1798 25.724 26.3502 25.1799 26.0947 24.7266C25.8391 24.1825 25.5835 23.6384 25.4983 23.0037C25.4131 22.4596 25.328 21.9156 25.328 21.3715C27.6281 22.1876 30.3541 24.0011 32.6542 26.6308C33.5913 27.7189 34.4432 28.8977 35.1247 30.0765C34.6988 30.5299 34.358 30.9833 34.1025 31.5273C33.7617 32.1621 33.4209 32.8875 33.2506 33.6129C33.0802 34.0663 33.3358 34.6104 33.8469 34.701C34.2728 34.8824 34.784 34.6104 34.8692 34.0663C35.0395 33.4316 35.2951 32.8875 35.5507 32.4341C35.7211 32.1621 35.8914 31.9807 36.0618 31.7087C36.4878 32.7062 36.9137 33.6129 37.0841 34.5197C37.6804 37.1493 37.4248 39.0536 36.4026 40.051ZM48.9254 28.807C49.9477 29.8952 50.3736 31.7087 49.8625 32.6155C49.5217 33.0689 48.8402 33.4316 47.9883 33.4316C46.966 33.4316 45.9438 33.0689 45.5178 32.4341C44.8363 31.5273 45.5178 29.6231 46.1141 28.535C46.2845 28.263 46.5401 27.9003 46.7957 27.7189C47.6476 27.9003 48.3291 28.263 48.9254 28.807Z" fill="#E7792B"/>
<path d="M28.3948 25.724C26.9466 25.724 25.8391 26.9935 25.8391 28.4443C25.8391 29.8952 27.0317 31.1646 28.3948 31.1646C29.7578 31.1646 30.9504 29.8952 30.9504 28.4443C30.9504 26.9935 29.7578 25.724 28.3948 25.724ZM28.3948 29.3511C27.8836 29.3511 27.5429 28.8977 27.5429 28.4443C27.5429 27.9003 27.9688 27.5375 28.3948 27.5375C28.9059 27.5375 29.2467 27.9909 29.2467 28.4443C29.2467 28.9884 28.8207 29.3511 28.3948 29.3511Z" fill="#E7792B"/>
<path d="M45.6882 22.2783C45.6882 20.7368 44.4955 19.5579 43.1325 19.5579C41.6843 19.5579 40.5768 20.8274 40.5768 22.2783C40.5768 23.7291 41.7695 24.9986 43.1325 24.9986C44.5807 24.9986 45.6882 23.8198 45.6882 22.2783ZM42.2806 22.2783C42.2806 21.7342 42.7066 21.3715 43.1325 21.3715C43.5585 21.3715 43.9844 21.8249 43.9844 22.2783C43.9844 22.8223 43.5585 23.185 43.1325 23.185C42.7066 23.185 42.2806 22.8223 42.2806 22.2783Z" fill="#E7792B"/>
<path d="M41.4287 11.669C42.877 11.669 43.9844 10.3995 43.9844 8.94871C43.9844 7.49787 42.7918 6.22839 41.4287 6.22839C40.0657 6.22839 38.8731 7.49787 38.8731 8.94871C38.8731 10.3995 39.9805 11.669 41.4287 11.669ZM41.4287 7.95126C41.9399 7.95126 42.2806 8.40465 42.2806 8.85803C42.2806 9.4021 41.8547 9.76481 41.4287 9.76481C41.0028 9.76481 40.5768 9.31142 40.5768 8.85803C40.5768 8.40465 40.9176 7.95126 41.4287 7.95126Z" fill="#E7792B"/>
<path d="M55.6554 26.8121C54.2923 26.8121 53.27 27.9909 53.27 29.3511C53.27 30.7113 54.3775 31.8901 55.6554 31.8901C56.9332 31.8901 58.0407 30.7113 58.0407 29.3511C58.0407 27.9909 57.0184 26.8121 55.6554 26.8121ZM55.6554 30.1672C55.3146 30.1672 54.9738 29.8045 54.9738 29.4418C54.9738 29.0791 55.3146 28.7164 55.6554 28.7164C55.9961 28.7164 56.3369 29.0791 56.3369 29.4418C56.3369 29.8045 56.0813 30.1672 55.6554 30.1672Z" fill="#E7792B"/>
<path d="M25.7539 11.3063C27.0317 11.3063 27.9688 10.2182 27.9688 8.94871C27.9688 7.67923 26.9466 6.5911 25.7539 6.5911C24.5613 6.5911 23.539 7.67923 23.539 8.94871C23.539 10.2182 24.4761 11.3063 25.7539 11.3063ZM25.7539 8.31397C26.0947 8.31397 26.265 8.586 26.265 8.85803C26.265 9.13006 26.0095 9.4021 25.7539 9.4021C25.4983 9.4021 25.2428 9.13006 25.2428 8.85803C25.2428 8.586 25.4131 8.31397 25.7539 8.31397Z" fill="#E7792B"/>
</svg>
