<svg width="60" height="60" viewBox="0 0 60 60" fill="none" xmlns="http://www.w3.org/2000/svg">
<path d="M16.6705 13.8526H8.07585C5.28636 13.8526 2.94922 16.3581 2.94922 19.5316V27.048C2.94922 27.9667 3.62774 28.7183 4.45705 28.7183C5.28636 28.7183 5.96488 27.9667 5.96488 27.048V19.5316C5.96488 18.2789 6.86958 17.2767 8.07585 17.2767H16.6705C17.4998 17.2767 18.1783 16.5251 18.1783 15.6064C18.1783 14.6878 17.4998 13.8526 16.6705 13.8526Z" fill="#E7792B"/>
<path d="M53.8386 19.4481V26.9645C53.8386 27.8832 54.5171 28.6348 55.3464 28.6348C56.1757 28.6348 56.8542 27.8832 56.8542 26.9645V19.4481C56.8542 16.3581 54.5925 13.7691 51.7276 13.7691H43.2084C42.379 13.7691 41.7005 14.5207 41.7005 15.4394C41.7005 16.3581 42.379 17.1097 43.2084 17.1097H51.803C52.9339 17.1932 53.8386 18.1954 53.8386 19.4481Z" fill="#E7792B"/>
<path d="M23.9081 28.3842H35.9708C37.4032 28.3842 38.6095 27.048 38.6095 25.4612V18.1954C38.6095 16.7756 37.6294 15.6064 36.3477 15.3559V12.0988C36.3477 8.17358 33.4828 5 29.9394 5C26.396 5 23.5311 8.17358 23.5311 12.0988V15.3559C22.2495 15.6064 21.2694 16.6921 21.2694 18.1954V25.4612C21.2694 27.048 22.4757 28.3842 23.9081 28.3842ZM30.6933 22.2876L31.1457 24.292C31.2211 24.6261 30.9949 24.9601 30.618 24.9601H29.1101C28.8086 24.9601 28.507 24.6261 28.5824 24.292L29.0347 22.2876C28.507 21.9536 28.0546 21.369 28.0546 20.6173C28.0546 19.5316 28.8085 18.6965 29.7886 18.6965C30.7687 18.6965 31.5226 19.5316 31.5226 20.6173C31.6734 21.2855 31.2965 21.9536 30.6933 22.2876ZM27.6777 12.0988C27.6777 10.7625 28.6578 9.59333 29.9394 9.59333C31.1457 9.59333 32.2012 10.679 32.2012 12.0988V15.2724H27.6777V12.0988Z" fill="#E7792B"/>
<path d="M18 58V56C18 54.9391 17.5786 53.9215 16.8284 53.1714C16.0783 52.4212 15.0609 52 14 52H6C4.93913 52 3.92172 52.4212 3.17157 53.1714C2.42142 53.9215 2 54.9391 2 56V58M14 44C14 46.2091 12.2091 48 10 48C7.79086 48 6 46.2091 6 44C6 41.7909 7.79086 40 10 40C12.2091 40 14 41.7909 14 44Z" stroke="#E7792B" stroke-width="2" stroke-linecap="round" stroke-linejoin="round"/>
<path d="M38 58V56C38 54.9391 37.5786 53.9215 36.8284 53.1714C36.0783 52.4212 35.0609 52 34 52H26C24.9391 52 23.9217 52.4212 23.1716 53.1714C22.4214 53.9215 22 54.9391 22 56V58M34 44C34 46.2091 32.2091 48 30 48C27.7909 48 26 46.2091 26 44C26 41.7909 27.7909 40 30 40C32.2091 40 34 41.7909 34 44Z" stroke="#E7792B" stroke-width="2" stroke-linecap="round" stroke-linejoin="round"/>
<path d="M58 58V56C58 54.9391 57.5786 53.9215 56.8284 53.1714C56.0783 52.4212 55.0609 52 54 52H46C44.9391 52 43.9217 52.4212 43.1716 53.1714C42.4214 53.9215 42 54.9391 42 56V58M54 44C54 46.2091 52.2091 48 50 48C47.7909 48 46 46.2091 46 44C46 41.7909 47.7909 40 50 40C52.2091 40 54 41.7909 54 44Z" stroke="#E7792B" stroke-width="2" stroke-linecap="round" stroke-linejoin="round"/>
</svg>
