<svg width="60" height="61" viewBox="0 0 60 61" fill="none" xmlns="http://www.w3.org/2000/svg">
<path d="M59.2045 9.36166C58.5705 8.89543 57.7099 8.87871 56.8425 9.31885L1.093 37.6591C0.00166361 38.2123 -0.0283365 39.0284 0.00899696 39.3515C0.0469971 39.6759 0.262331 40.4612 1.45234 40.7515L19.0337 45.0144L28.5878 59.9973C28.9891 60.6261 29.6018 60.9906 30.2711 61C30.2791 61 30.2864 61 30.2944 61C30.9544 61 31.5691 60.6515 31.9791 60.0381L38.8511 49.8165L51.2558 52.8239C51.3952 52.8587 51.5385 52.8748 51.6792 52.8748C52.0265 52.8748 52.3678 52.7751 52.6598 52.5818C53.0685 52.3095 53.3498 51.8714 53.4292 51.3804L59.9565 11.6079C60.1139 10.648 59.8399 9.82856 59.2045 9.36166ZM3.83434 38.9033L51.2918 14.7791L19.4531 42.6927L3.83434 38.9033ZM29.3178 45.7931C29.3144 45.7971 29.3124 45.8024 29.3091 45.8064C29.3004 45.8198 29.2924 45.8312 29.2838 45.8446C29.2638 45.8733 29.2471 45.9048 29.2291 45.9362C29.2151 45.9603 29.1984 45.983 29.1871 46.0078C29.1811 46.0198 29.1771 46.0298 29.1724 46.0426C29.1584 46.0747 29.1484 46.1074 29.1371 46.1402C29.1271 46.1703 29.1144 46.1997 29.1064 46.2298C29.1058 46.2352 29.1031 46.2399 29.1018 46.2446C29.0998 46.2513 29.1004 46.2586 29.0984 46.2653C29.0918 46.2947 29.0891 46.3268 29.0844 46.3569C29.0798 46.3911 29.0738 46.4245 29.0718 46.4573C29.0711 46.4727 29.0704 46.4894 29.0704 46.5054C29.0704 46.5115 29.0684 46.5175 29.0684 46.5235L29.1018 56.4347L21.2997 44.1997L50.5578 18.5491L29.3178 45.7931ZM31.4484 56.618L31.4198 48.0158L36.4171 49.2279L31.4484 56.618ZM51.2145 50.3931L32.2871 45.8051L57.2132 13.832L51.2145 50.3931Z" fill="#E7792B"/>
</svg>
