<svg width="60" height="60" viewBox="0 0 60 60" fill="none" xmlns="http://www.w3.org/2000/svg">
<path d="M58.7496 43.9999H56.2491V6.50048H58.7496C59.4398 6.50048 60 5.94118 60 5.25024C60 4.5603 59.4398 4 58.7496 4C56.5936 4 3.13286 4 1.24914 4C0.559189 4 0 4.5603 0 5.25024C0 5.94118 0.559314 6.50048 1.24914 6.50048H3.74955V43.9999H1.24914C0.559189 43.9999 0 44.5591 0 45.2501C0 45.94 0.559314 46.4991 1.24914 46.4991C10.1913 46.4991 19.1372 46.4991 28.1038 46.4991L21.3507 55.2563C21.0784 55.8911 21.3727 56.6262 22.0075 56.8985C22.6412 57.1707 23.3763 56.8765 23.6486 56.2417L28.7497 51.3388V55.7494C28.7497 56.4394 29.309 56.9984 29.9999 56.9984C30.6898 56.9984 31.249 56.4392 31.249 55.7494V51.3388L36.35 56.2417C36.5539 56.7153 37.0156 56.9996 37.5003 56.9996C38.3928 56.9996 39.002 56.0828 38.6479 55.2563L31.8949 46.4991C33.2634 46.4991 57.4591 46.4991 58.7496 46.4991C59.4398 46.4991 60 45.9397 60 45.2501C60 44.5591 59.4396 43.9999 58.7496 43.9999ZM6.24997 43.9999V6.50048H53.7499V43.9999C47.8941 43.9999 11.9311 43.9999 6.24997 43.9999Z" fill="#E7792B"/>
<path d="M12 12C12 11.4477 12.4477 11 13 11H47C47.5523 11 48 11.4477 48 12C48 12.5523 47.5523 13 47 13H13C12.4477 13 12 12.5523 12 12Z" fill="#E7792B"/>
<path d="M12 16C12 15.4477 12.4477 15 13 15H36C36.5523 15 37 15.4477 37 16C37 16.5523 36.5523 17 36 17H13C12.4477 17 12 16.5523 12 16Z" fill="#E7792B"/>
<path d="M12 26C12 25.4477 12.4477 25 13 25H43C43.5523 25 44 25.4477 44 26C44 26.5523 43.5523 27 43 27H13C12.4477 27 12 26.5523 12 26Z" fill="#E7792B"/>
<path d="M12 30C12 29.4477 12.4477 29 13 29H37C37.5523 29 38 29.4477 38 30C38 30.5523 37.5523 31 37 31H13C12.4477 31 12 30.5523 12 30Z" fill="#E7792B"/>
<path d="M12 34C12 33.4477 12.4477 33 13 33H39C39.5523 33 40 33.4477 40 34C40 34.5523 39.5523 35 39 35H13C12.4477 35 12 34.5523 12 34Z" fill="#E7792B"/>
<path d="M12 38C12 37.4477 12.4477 37 13 37H29C29.5523 37 30 37.4477 30 38C30 38.5523 29.5523 39 29 39H13C12.4477 39 12 38.5523 12 38Z" fill="#E7792B"/>
</svg>
