<svg width="60" height="60" viewBox="0 0 60 60" fill="none" xmlns="http://www.w3.org/2000/svg">
<path d="M25.913 3.00007C25.0737 2.99588 24.3758 3.60454 24.1756 4.28913L22.6437 9.65087C21.5825 10.002 20.5588 10.422 19.5798 10.9212L14.7225 8.21235C14.0491 7.84147 13.138 7.96935 12.5927 8.51126L7.51121 13.5741C6.96096 14.1219 6.83249 15.0453 7.2123 15.7225L9.9212 20.5985C9.42118 21.582 8.9826 22.5962 8.63214 23.6624L3.30774 25.1756C2.5641 25.3849 2.00338 26.1219 2 26.8944V34.087C2.00359 34.8595 2.5641 35.5964 3.30774 35.8057L8.65082 37.3376C8.99992 38.3957 9.42473 39.4063 9.9212 40.3828L7.2123 45.2588C6.83249 45.936 6.96096 46.8595 7.51121 47.4072L12.5927 52.4701C13.138 53.012 14.0491 53.1399 14.7225 52.769L19.5798 50.0788C20.5637 50.5803 21.5955 50.9973 22.6624 51.3492L24.1756 56.6922C24.3866 57.4418 25.1343 58.0047 25.913 58H33.087C33.8657 58.0059 34.6134 57.4418 34.8244 56.6922L36.3376 51.3492C37.4045 50.9973 38.4363 50.5803 39.4202 50.0788L44.2775 52.769C44.9509 53.1399 45.862 53.012 46.4073 52.4701L51.4888 47.4072C52.039 46.8595 52.1675 45.936 51.7877 45.2588L49.0788 40.3828C49.5753 39.4063 50.0001 38.3957 50.3492 37.3376L55.6923 35.8057C56.4359 35.5964 56.9966 34.8595 57 34.087V26.8944C56.9964 26.1219 56.4359 25.3849 55.6923 25.1756L50.3679 23.6624C50.0174 22.5962 49.5788 21.582 49.0788 20.5985L51.7877 15.7225C52.1675 15.0453 52.039 14.1219 51.4888 13.5741L46.4073 8.51126C45.862 7.96935 44.9509 7.84147 44.2775 8.21235L39.4202 10.9212C38.4412 10.422 37.4175 10.002 36.3563 9.65087L34.8244 4.28913C34.6067 3.5463 33.861 2.99308 33.087 3.00007H25.913ZM27.2582 6.58701H31.7418L33.143 11.5191C33.3128 12.1071 33.8042 12.5912 34.3947 12.7521C35.8677 13.1579 37.2695 13.7442 38.5795 14.4895C39.1097 14.7946 39.799 14.802 40.3356 14.5082L44.838 12.0048L47.9952 15.162L45.4918 19.6644C45.1924 20.1978 45.1924 20.8871 45.4918 21.4205C46.2372 22.7305 46.8422 24.1137 47.248 25.5866C47.4089 26.1771 47.8929 26.6685 48.481 26.8383L53.413 28.2395V32.7418L48.481 34.143C47.8929 34.3128 47.4089 34.8042 47.248 35.3947C46.8422 36.8677 46.2372 38.2695 45.4918 39.5794C45.1924 40.1129 45.1924 40.8022 45.4918 41.3355L47.9952 45.8192L44.838 48.9765L40.3356 46.4918C39.8022 46.1924 39.1129 46.1924 38.5795 46.4918C37.2695 47.2371 35.8677 47.8235 34.3947 48.2293C33.8042 48.3902 33.3128 48.8742 33.143 49.4623L31.7418 54.413H27.2582L25.857 49.4623C25.6872 48.8742 25.1958 48.3902 24.6053 48.2293C23.1323 47.8234 21.7305 47.2371 20.4205 46.4918C19.8871 46.1924 19.1978 46.1924 18.6644 46.4918L14.162 48.9765L11.0048 45.8193L13.5082 41.3356C13.8076 40.8022 13.8076 40.1129 13.5082 39.5795C12.7628 38.2695 12.1578 36.8677 11.752 35.3947C11.5911 34.8042 11.1071 34.3128 10.519 34.143L5.58696 32.7419V28.2395L10.519 26.8384C11.1071 26.6686 11.5911 26.1772 11.752 25.5866C12.1578 24.1137 12.7628 22.7305 13.5082 21.4206C13.8076 20.8872 13.8076 20.1978 13.5082 19.6644L11.0048 15.1621L14.162 12.0048L18.6644 14.5082C19.201 14.802 19.8903 14.7947 20.4205 14.4895C21.7305 13.7442 23.1323 13.1579 24.6053 12.7521C25.1958 12.5912 25.6872 12.1071 25.857 11.5191L27.2582 6.58701ZM29.5 16.75C21.9273 16.75 15.75 22.9274 15.75 30.5C15.75 38.0727 21.9273 44.25 29.5 44.25C37.0727 44.25 43.25 38.0727 43.25 30.5C43.25 22.9274 37.0727 16.75 29.5 16.75ZM29.5 20.337C35.1341 20.337 39.663 24.8659 39.663 30.5C39.663 36.1342 35.1341 40.663 29.5 40.663C23.8659 40.663 19.337 36.1342 19.337 30.5C19.337 24.8659 23.8659 20.337 29.5 20.337Z" fill="#E7792B"/>
</svg>
