<svg width="60" height="60" viewBox="0 0 60 60" fill="none" xmlns="http://www.w3.org/2000/svg">
<path d="M56.1474 36.4896C58.6737 33.5751 60 29.8834 60 25.9974C60 17.1244 52.9895 10 44.4 10C40.5474 10 37.0737 11.4896 34.3579 13.886C30.8211 11.4249 26.5895 10 22.0421 10C9.85263 10 0 20.1036 0 32.6036C0 38.2383 2.02105 43.5492 5.68421 47.7591C4.98947 49.9611 4.04211 52.0337 2.90526 53.8471C1.95789 55.3368 2.08421 57.1503 3.15789 58.5104C3.91579 59.4819 5.05263 60 6.18947 60C6.69474 60 7.2 59.9352 7.64211 59.6762C10.4842 58.5104 13.6421 56.7617 16.9263 54.4948C18.6316 54.8834 20.3368 55.1425 22.0421 55.1425C31.0105 55.1425 38.6526 49.6373 42.1263 41.8005C43.9579 42.0596 45.8526 42.0596 47.8105 41.6062C50.0842 43.1606 52.1684 44.3264 54.1263 45.1036C54.5053 45.2979 54.8842 45.3627 55.3263 45.3627C56.2737 45.3627 57.1579 44.9093 57.7895 44.1969C58.6737 43.0959 58.7368 41.5415 58.0421 40.3757C57.2211 39.1451 56.6526 37.8497 56.1474 36.4896ZM17.0526 51.1917C16.6105 51.0622 16.1053 51.1269 15.7263 51.4508C12.3789 53.7824 9.28421 55.5959 6.50526 56.6969C6.06316 56.8912 5.74737 56.6321 5.68421 56.5026C5.55789 56.3083 5.43158 56.0492 5.62105 55.6606C7.13684 53.2643 8.27368 50.6736 9.03158 47.7591C9.22105 47.1762 9.03158 46.5933 8.65263 46.1399C5.17895 42.513 3.22105 37.7202 3.22105 32.6036C3.22105 21.9819 11.6842 13.3031 22.0421 13.3031C32.4 13.3031 40.8632 21.9819 40.8632 32.6036C40.8632 44.9093 29.3684 54.6244 17.0526 51.1917ZM49.0105 38.4974C48.7579 38.3031 48.4421 38.1736 48.1263 38.1736C48 38.1736 47.8105 38.1736 47.6842 38.2383C46.1684 38.6917 44.6526 38.7565 43.2 38.6269C43.7053 36.6839 44.021 34.6762 44.021 32.5389C44.021 25.9326 41.2421 20.0389 36.8842 15.8938C38.9684 14.2098 41.5579 13.2383 44.4 13.2383C51.2211 13.2383 56.7789 18.9378 56.7789 25.9326C56.7789 29.3005 55.5158 32.4741 53.2421 34.8705C52.8 35.3238 52.6737 35.9067 52.8 36.4896C53.3684 38.4974 54.1895 40.3757 55.2632 41.9948C53.3684 41.2824 51.2211 40.0518 49.0105 38.4974Z" fill="#E7792B"/>
<path d="M13.0737 35.3238C14.5387 35.3238 15.7263 34.106 15.7263 32.6036C15.7263 31.1013 14.5387 29.8834 13.0737 29.8834C11.6087 29.8834 10.4211 31.1013 10.4211 32.6036C10.4211 34.106 11.6087 35.3238 13.0737 35.3238Z" fill="#E7792B"/>
<path d="M22.0421 35.3238C23.5071 35.3238 24.6947 34.106 24.6947 32.6036C24.6947 31.1013 23.5071 29.8834 22.0421 29.8834C20.5771 29.8834 19.3895 31.1013 19.3895 32.6036C19.3895 34.106 20.5771 35.3238 22.0421 35.3238Z" fill="#E7792B"/>
<path d="M30.9474 35.3238C32.4124 35.3238 33.6 34.106 33.6 32.6036C33.6 31.1013 32.4124 29.8834 30.9474 29.8834C29.4824 29.8834 28.2947 31.1013 28.2947 32.6036C28.2947 34.106 29.4824 35.3238 30.9474 35.3238Z" fill="#E7792B"/>
</svg>
