<svg width="60" height="60" viewBox="0 0 60 60" fill="none" xmlns="http://www.w3.org/2000/svg">
<path d="M5.52409 47.5033C5.10615 48.009 4.92516 48.6715 5.02843 49.3194C5.73334 53.7695 9.4291 57 13.8162 57H44.9823C49.3694 57 53.0652 53.7695 53.7701 49.3194C53.8733 48.6715 53.6924 48.009 53.2744 47.5033C52.8467 46.9852 52.2233 46.6875 51.564 46.6875H44.8593C46.3065 45.2304 47.2085 43.2017 47.2085 40.9584V37.4413C51.5939 36.8746 55 33.0198 55 28.3543V21.9806C55 19.8087 53.2836 18.0418 51.1738 18.0418H47.2085V14.6043C47.2085 13.341 46.2101 12.3127 44.9823 12.3127H13.8162C12.5884 12.3127 11.59 13.341 11.59 14.6043V40.9584C11.59 43.2017 12.492 45.2304 13.9392 46.6875H7.23447C6.57521 46.6875 5.95182 46.9852 5.52409 47.5033ZM51.1738 20.3335C52.0559 20.3335 52.7738 21.072 52.7738 21.9806V28.3543C52.7738 31.7542 50.362 34.5777 47.2085 35.1257V20.3335H51.1738ZM13.8162 40.9584V14.6043H44.9823V40.9584C44.9823 44.1173 42.4855 46.6875 39.4169 46.6875H19.3816C16.313 46.6875 13.8162 44.1173 13.8162 40.9584ZM51.564 48.9792L51.5733 48.9501C51.0444 52.2869 48.2726 54.7083 44.9823 54.7083H13.8162C10.5259 54.7083 7.75405 52.2869 7.23447 48.9792H51.564Z" fill="#E7792B"/>
<path d="M23.429 4.03002C23.9023 3.62831 23.9708 2.90769 23.5811 2.4187C23.1915 1.93082 22.4904 1.85921 22.0148 2.2598C21.7115 2.51605 20.1963 3.87448 20.1196 5.48916C20.0848 6.20866 20.337 6.86774 20.8479 7.39365C20.9561 7.50555 20.9528 7.55814 20.9495 7.60178C20.9218 8.02587 20.2664 8.75992 19.8267 9.10456C19.3348 9.4839 19.2354 10.2023 19.6044 10.7092C19.8229 11.0091 20.1571 11.1668 20.4957 11.1668C20.7278 11.1668 20.9626 11.0919 21.1626 10.9374C21.4784 10.6935 23.0583 9.3955 23.1703 7.76403C23.2214 7.0188 22.9626 6.32951 22.4219 5.77338C22.3393 5.68834 22.3409 5.64805 22.3431 5.60218C22.3626 5.16578 22.986 4.40935 23.429 4.03002Z" fill="#E7792B"/>
<path d="M31.2297 4.02219C31.6988 3.61488 31.7596 2.89314 31.3651 2.40974C30.9689 1.92411 30.2678 1.86369 29.7965 2.26875C29.5014 2.52388 28.0264 3.87672 27.9584 5.48468C27.928 6.20642 28.1824 6.86662 28.6943 7.39365C28.7954 7.49772 28.7927 7.5436 28.7894 7.58388C28.7623 7.97328 28.1536 8.69502 27.6269 9.09785C27.1318 9.47271 27.0253 10.19 27.3894 10.6991C27.6073 11.0046 27.9449 11.1668 28.2873 11.1668C28.5161 11.1668 28.7465 11.0941 28.9454 10.9442C29.2688 10.7002 30.8884 9.39662 31.0091 7.75844C31.064 7.01544 30.808 6.32839 30.2683 5.77338C30.1786 5.6805 30.1803 5.63463 30.1824 5.58539C30.1993 5.14787 30.8015 4.39704 31.2297 4.02219Z" fill="#E7792B"/>
<path d="M39.0305 4.01435C39.4957 3.60145 39.5485 2.87859 39.1479 2.39967C38.7479 1.91851 38.0457 1.8648 37.5783 2.27659C37.2913 2.53059 35.8554 3.87896 35.7967 5.47909C35.7701 6.20418 36.0272 6.8655 36.5402 7.39365C36.6348 7.491 36.6321 7.53129 36.6294 7.56709C36.5995 7.9565 35.9706 8.68383 35.4277 9.09114C34.9288 9.4604 34.8152 10.1765 35.1744 10.6902C35.3918 11.0012 35.7326 11.1668 36.0788 11.1668C36.3038 11.1668 36.531 11.0963 36.7277 10.9509C37.0593 10.7058 38.7191 9.39774 38.8479 7.75284C38.906 7.01208 38.6522 6.32727 38.1142 5.77338C38.0245 5.6805 38.0191 5.63015 38.0212 5.56749C38.0359 5.13109 38.6164 4.38585 39.0305 4.01435Z" fill="#E7792B"/>
</svg>
