<svg width="60" height="60" viewBox="0 0 60 60" fill="none" xmlns="http://www.w3.org/2000/svg">
<path d="M22.8489 59C22.2287 59 21.6084 58.7715 21.1654 58.3908C20.2794 57.6293 20.2794 56.3347 21.1654 55.5731C28.9625 48.8717 33.304 39.9619 33.304 30.4429C33.304 21 29.0511 12.1663 21.3426 5.46493C20.4566 4.70341 20.4566 3.40882 21.3426 2.57114C22.2287 1.80962 23.7349 1.80962 24.621 2.57114C33.2154 10.0341 38 19.9339 38 30.4429C38 41.0281 33.2154 50.9279 24.4437 58.3908C24.0007 58.7715 23.3805 59 22.8489 59ZM14.1658 49.5571C20.1908 44.4549 23.4691 37.6774 23.4691 30.4429C23.4691 23.2846 20.2794 16.507 14.343 11.4048C13.457 10.6433 11.9507 10.6433 11.0647 11.4048C10.1787 12.1663 10.1787 13.4609 11.0647 14.2224C16.0265 18.5631 18.7732 24.2745 18.7732 30.3667C18.7732 36.5351 15.9379 42.3226 10.8875 46.6633C10.0015 47.4249 10.0015 48.7194 10.8875 49.481C11.3305 49.8617 11.9507 50.0902 12.5709 50.0902C13.1026 50.1663 13.7228 49.9379 14.1658 49.5571ZM3.88785 40.7234C7.16616 37.982 8.93822 34.3267 8.93822 30.3667C8.93822 26.5591 7.25477 22.9038 4.06506 20.1623C3.17903 19.4008 1.67278 19.3247 0.786747 20.1623C-0.0992829 20.9238 -0.187886 22.2184 0.786747 22.98C3.00182 24.9599 4.33087 27.5491 4.33087 30.2906C4.33087 33.1082 3.00182 35.7735 0.698144 37.7535C-0.187886 38.515 -0.276489 39.8096 0.698144 40.5711C1.14116 40.9519 1.76138 41.1804 2.3816 41.1804C2.82462 41.3327 3.44484 41.1042 3.88785 40.7234Z" fill="#E7792B"/>
</svg>
