<svg width="60" height="60" viewBox="0 0 60 60" fill="none" xmlns="http://www.w3.org/2000/svg">
<path d="M51.0341 30.1818C51.0341 41.9016 41.646 51.3636 30.1128 51.3636C18.5795 51.3636 9.19141 41.9016 9.19141 30.1818C9.19141 18.4621 18.5795 9 30.1128 9C41.646 9 51.0341 18.4621 51.0341 30.1818Z" stroke="#E7792B" stroke-width="4"/>
<path d="M35.8148 6.94332C36.0012 6.11548 36.0018 5.25591 35.8165 4.42782C35.6312 3.59972 35.2648 2.82415 34.7442 2.15811C34.2236 1.49207 33.562 0.952508 32.808 0.57908C32.0541 0.205651 31.227 0.00785424 30.3875 0.000229173C29.5481 -0.00739589 28.7176 0.175345 27.9572 0.535018C27.1967 0.894691 26.5256 1.42215 25.9933 2.07862C25.4609 2.73509 25.0807 3.50389 24.8808 4.32848C24.6808 5.15308 24.6661 6.01252 24.8378 6.84361L26.83 6.42274C26.7205 5.89272 26.7299 5.34462 26.8574 4.81874C26.9849 4.29286 27.2273 3.80257 27.5668 3.38391C27.9064 2.96525 28.3343 2.62886 28.8193 2.39949C29.3043 2.17011 29.8339 2.05356 30.3693 2.05843C30.9046 2.06329 31.4321 2.18943 31.9129 2.42759C32.3937 2.66574 32.8157 3.00984 33.1477 3.4346C33.4797 3.85936 33.7134 4.35398 33.8316 4.88209C33.9497 5.4102 33.9493 5.95838 33.8305 6.48633L35.8148 6.94332Z" fill="#E7792B"/>
<path d="M53.1347 35.3127C53.9532 35.5012 54.8031 35.5018 55.6219 35.3144C56.4407 35.1271 57.2076 34.7565 57.8661 34.2299C58.5247 33.7034 59.0582 33.0343 59.4274 32.2718C59.7967 31.5093 59.9922 30.6728 59.9998 29.8238C60.0073 28.9748 59.8266 28.1348 59.471 27.3658C59.1154 26.5967 58.5938 25.918 57.9447 25.3795C57.2956 24.8411 56.5355 24.4567 55.7201 24.2544C54.9048 24.0522 54.055 24.0373 53.2333 24.211L53.6494 26.2257C54.1735 26.115 54.7154 26.1245 55.2354 26.2535C55.7554 26.3824 56.2402 26.6276 56.6541 26.971C57.0681 27.3144 57.4007 27.7472 57.6275 28.2377C57.8543 28.7282 57.9695 29.2638 57.9647 29.8053C57.9599 30.3467 57.8352 30.8802 57.5997 31.3665C57.3642 31.8527 57.024 32.2795 56.604 32.6153C56.184 32.9511 55.6949 33.1874 55.1728 33.3069C54.6506 33.4264 54.1086 33.426 53.5866 33.3058L53.1347 35.3127Z" fill="#E7792B"/>
<path d="M42.4857 50.2351C42.9327 50.9537 43.5333 51.5619 44.2433 52.015C44.9533 52.468 45.7546 52.7544 46.5884 52.853C47.4222 52.9517 48.2673 52.8601 49.0615 52.585C49.8557 52.3098 50.5788 51.8582 51.1777 51.2633C51.7767 50.6683 52.2361 49.9452 52.5224 49.147C52.8086 48.3489 52.9144 47.496 52.8318 46.6511C52.7493 45.8062 52.4806 44.9907 52.0455 44.2646C51.6103 43.5386 51.0198 42.9203 50.3174 42.4554L49.203 44.1777C49.6509 44.4742 50.0275 44.8685 50.305 45.3315C50.5825 45.7945 50.7539 46.3146 50.8065 46.8535C50.8592 47.3923 50.7917 47.9362 50.6092 48.4452C50.4266 48.9542 50.1336 49.4154 49.7517 49.7948C49.3697 50.1742 48.9085 50.4623 48.402 50.6377C47.8955 50.8132 47.3566 50.8716 46.8248 50.8087C46.2931 50.7458 45.782 50.5632 45.3293 50.2742C44.8765 49.9853 44.4935 49.5974 44.2084 49.1391L42.4857 50.2351Z" fill="#E7792B"/>
<path d="M17.5143 50.2351C17.0673 50.9537 16.4667 51.5619 15.7567 52.015C15.0467 52.468 14.2454 52.7544 13.4116 52.853C12.5778 52.9517 11.7327 52.8601 10.9385 52.585C10.1443 52.3098 9.42117 51.8582 8.82225 51.2633C8.22333 50.6683 7.76386 49.9452 7.47762 49.147C7.19137 48.3489 7.08563 47.496 7.16816 46.6511C7.2507 45.8062 7.51941 44.9907 7.95455 44.2646C8.38968 43.5386 8.98018 42.9203 9.68263 42.4554L10.797 44.1777C10.3491 44.4742 9.97247 44.8685 9.69497 45.3315C9.41746 45.7945 9.24609 46.3146 9.19346 46.8535C9.14082 47.3923 9.20826 47.9362 9.39081 48.4452C9.57336 48.9542 9.86639 49.4154 10.2483 49.7948C10.6303 50.1742 11.0915 50.4623 11.598 50.6377C12.1045 50.8132 12.6434 50.8716 13.1751 50.8087C13.7069 50.7458 14.218 50.5632 14.6707 50.2742C15.1235 49.9853 15.5065 49.5974 15.7916 49.1391L17.5143 50.2351Z" fill="#E7792B"/>
<path d="M24.8593 53.0567C24.6729 53.8845 24.6724 54.7441 24.8576 55.5722C25.0429 56.4003 25.4093 57.1759 25.93 57.8419C26.4506 58.5079 27.1122 59.0475 27.8661 59.4209C28.6201 59.7944 29.4472 59.9921 30.2866 59.9998C31.1261 60.0074 31.9566 59.8247 32.717 59.465C33.4775 59.1053 34.1485 58.5779 34.6809 57.9214C35.2133 57.2649 35.5934 56.4961 35.7934 55.6715C35.9933 54.8469 36.008 53.9875 35.8364 53.1564L33.8442 53.5773C33.9537 54.1073 33.9443 54.6554 33.8168 55.1813C33.6893 55.7071 33.4468 56.1974 33.1073 56.6161C32.7678 57.0348 32.3398 57.3711 31.8549 57.6005C31.3699 57.8299 30.8403 57.9464 30.3049 57.9416C29.7695 57.9367 29.2421 57.8106 28.7613 57.5724C28.2804 57.3343 27.8585 56.9902 27.5265 56.5654C27.1945 56.1406 26.9608 55.646 26.8426 55.1179C26.7244 54.5898 26.7248 54.0416 26.8437 53.5137L24.8593 53.0567Z" fill="#E7792B"/>
<path d="M6.8653 35.3127C6.04676 35.5012 5.19686 35.5018 4.37807 35.3144C3.55927 35.1271 2.79241 34.7565 2.13386 34.2299C1.47531 33.7034 0.941806 33.0343 0.572573 32.2718C0.203341 31.5093 0.00776602 30.6728 0.0002266 29.8238C-0.00731282 28.9748 0.173375 28.1348 0.529006 27.3658C0.884638 26.5967 1.40617 25.918 2.05527 25.3795C2.70436 24.8411 3.46452 24.4567 4.27985 24.2544C5.09518 24.0522 5.94496 24.0373 6.76672 24.211L6.35058 26.2257C5.82651 26.115 5.28457 26.1245 4.7646 26.2535C4.24462 26.3824 3.75984 26.6276 3.34589 26.971C2.93193 27.3144 2.59933 27.7472 2.37252 28.2377C2.14572 28.7282 2.03049 29.2638 2.0353 29.8053C2.04011 30.3467 2.16483 30.8802 2.40031 31.3665C2.63578 31.8527 2.97602 32.2795 3.39601 32.6153C3.816 32.9511 4.30506 33.1874 4.82723 33.3069C5.34941 33.4264 5.89143 33.426 6.41345 33.3058L6.8653 35.3127Z" fill="#E7792B"/>
<path d="M17.5143 9.3104C17.0673 8.59173 16.4667 7.98352 15.7567 7.53047C15.0467 7.07742 14.2454 6.79105 13.4116 6.69241C12.5778 6.59378 11.7327 6.68539 10.9385 6.9605C10.1443 7.23562 9.42117 7.68725 8.82225 8.28219C8.22333 8.87713 7.76386 9.60026 7.47762 10.3984C7.19137 11.1966 7.08563 12.0494 7.16816 12.8944C7.2507 13.7393 7.51941 14.5548 7.95455 15.2808C8.38968 16.0069 8.98018 16.6251 9.68263 17.09L10.797 15.3678C10.3491 15.0713 9.97247 14.677 9.69497 14.214C9.41746 13.7509 9.24609 13.2308 9.19346 12.692C9.14082 12.1532 9.20826 11.6092 9.39081 11.1002C9.57336 10.5912 9.86639 10.13 10.2483 9.75063C10.6303 9.37121 11.0915 9.08318 11.598 8.90773C12.1045 8.73228 12.6434 8.67386 13.1751 8.73676C13.7069 8.79966 14.218 8.98229 14.6707 9.27122C15.1235 9.56015 15.5065 9.94804 15.7916 10.4064L17.5143 9.3104Z" fill="#E7792B"/>
<path d="M50.2324 17.1451C50.943 16.693 51.5444 16.0856 51.9924 15.3676C52.4403 14.6495 52.7235 13.8391 52.821 12.9958C52.9185 12.1525 52.8279 11.2978 52.5559 10.4946C52.2839 9.6914 51.8373 8.96005 51.2491 8.35432C50.6608 7.7486 49.9458 7.28391 49.1566 6.99441C48.3674 6.70491 47.5241 6.59797 46.6887 6.68144C45.8533 6.76491 45.047 7.03668 44.3291 7.47676C43.6111 7.91684 42.9999 8.51405 42.5402 9.22448L44.2431 10.3516C44.5363 9.89848 44.9261 9.51761 45.384 9.23696C45.8418 8.9563 46.356 8.78298 46.8888 8.72975C47.4216 8.67651 47.9594 8.74472 48.4627 8.92934C48.966 9.11397 49.422 9.41032 49.7971 9.79662C50.1723 10.1829 50.4571 10.6493 50.6306 11.1616C50.804 11.6738 50.8618 12.2189 50.7996 12.7567C50.7374 13.2945 50.5568 13.8113 50.2712 14.2693C49.9855 14.7272 49.6019 15.1146 49.1488 15.4029L50.2324 17.1451Z" fill="#E7792B"/>
</svg>
