<svg width="18" height="18" viewBox="0 0 18 18" fill="none" xmlns="http://www.w3.org/2000/svg">
<path d="M10.454 12.5971C10.4187 12.5622 10.3711 12.5426 10.3215 12.5426C10.2719 12.5426 10.2244 12.5622 10.1891 12.5971L7.46577 15.3207C6.20488 16.5817 4.07682 16.7153 2.68468 15.3207C1.29019 13.9261 1.42378 11.8002 2.68468 10.5392L5.40803 7.81562C5.48068 7.74296 5.48068 7.62342 5.40803 7.55076L4.47524 6.6179C4.44001 6.58301 4.39242 6.56343 4.34283 6.56343C4.29324 6.56343 4.24565 6.58301 4.21041 6.6179L1.48706 9.34147C-0.495687 11.3244 -0.495687 14.5331 1.48706 16.5137C3.46981 18.4943 6.6783 18.4966 8.6587 16.5137L11.3821 13.7901C11.4547 13.7175 11.4547 13.5979 11.3821 13.5253L10.454 12.5971ZM16.5147 1.48718C14.5319 -0.495727 11.3235 -0.495727 9.34306 1.48718L6.61736 4.21075C6.58247 4.24599 6.5629 4.29359 6.5629 4.34318C6.5629 4.39278 6.58247 4.44037 6.61736 4.47561L7.5478 5.40612C7.62046 5.47878 7.73998 5.47878 7.81264 5.40612L10.536 2.68255C11.7969 1.42155 13.9249 1.28795 15.3171 2.68255C16.7116 4.07715 16.578 6.20304 15.3171 7.46404L12.5937 10.1876C12.5588 10.2228 12.5393 10.2704 12.5393 10.32C12.5393 10.3696 12.5588 10.4172 12.5937 10.4525L13.5265 11.3853C13.5992 11.458 13.7187 11.458 13.7913 11.3853L16.5147 8.66175C18.4951 6.67884 18.4951 3.47009 16.5147 1.48718ZM11.3 5.72723C11.2648 5.69234 11.2172 5.67276 11.1676 5.67276C11.118 5.67276 11.0704 5.69234 11.0352 5.72723L5.72677 11.0337C5.69187 11.069 5.6723 11.1166 5.6723 11.1662C5.6723 11.2158 5.69187 11.2634 5.72677 11.2986L6.65486 12.2268C6.72752 12.2994 6.84704 12.2994 6.9197 12.2268L12.2258 6.92026C12.2984 6.8476 12.2984 6.72806 12.2258 6.6554L11.3 5.72723Z" fill="#006484"/>
</svg>
