<svg width="800" height="52" viewBox="0 0 800 52" fill="none" xmlns="http://www.w3.org/2000/svg">
<path d="M453.829 26.3617L453.408 26.5745V26.7872L452.777 38.383H454.144C458.352 38.383 460.455 36.5745 460.455 32.8511V31.3617C460.561 28.0638 458.352 26.3617 453.829 26.3617ZM455.301 8.48936L454.249 19.6596H455.301C459.509 19.6596 461.612 17.7447 461.612 13.8085L461.297 13.5957V13.383L461.612 12.6383C461.612 9.87234 459.509 8.48936 455.301 8.48936ZM441.416 3.80851L451.725 3.91489L458.457 4.12766L458.878 3.91489H459.193L460.561 4.12766H462.033L463.821 3.91489V4.12766L464.137 3.91489C467.924 3.91489 470.553 5.7234 472.236 9.23404C472.552 9.97872 472.973 11.0426 472.973 12.6383C472.973 16.8936 470.974 19.8723 466.977 21.5745C465.189 22.3191 463.611 22.7447 462.033 22.7447V22.9574C465.084 22.9574 468.239 24.6596 471.184 28.2766C472.026 29.3404 472.236 30.5106 472.236 31.6809V33.8085C472.236 39.234 468.239 44.1277 459.193 44.8723L456.037 45.1915C449.621 45.7234 445.203 44.8723 442.994 44.4468L442.363 44.3404L442.258 43.9149V42.7447L441.311 39.8723L442.679 22.9574L441.416 22.8511V3.80851Z" fill="white"/>
<path d="M246.504 20.2979L246.609 20.8298C246.925 23.383 249.029 26.6808 253.026 30.617L253.657 31.6809L253.447 32V32.2128L253.762 32.4255V32.6383C253.552 34.5532 253.131 35.617 252.5 35.9362L252.079 36.0426C251.448 35.8298 251.027 35.4043 251.027 34.9787L251.133 32.4255L245.452 31.4681L244.927 34.8723L245.137 35.0851L245.242 35.5106L245.032 35.8298C245.242 37.9574 247.03 39.766 250.291 41.0426L253.447 41.3617C258.18 40.7234 260.179 37.3191 259.442 31.1489C259.127 29.6596 257.128 26.8936 253.552 22.9574L252.816 20.4043C252.5 17.9574 253.026 16.5745 254.393 16.4681L255.445 17.1064L255.13 20.9362L261.02 21.5745L260.915 21.0426H261.125L260.81 20.8298V20.617L261.02 18.7021L260.81 17.3191L261.02 17.1064C259.442 12.7447 256.392 10.8298 251.658 11.4681C249.029 11.7872 247.346 13.5957 246.504 17.1064V20.2979ZM269.33 5.82979V32.9574C269.33 34.3404 267.647 35.7234 267.857 37.1064V37.3192L268.909 39.3404C269.014 45.4043 268.699 49.0213 267.963 50.0851C253.867 49.1277 244.295 48.0638 243.033 47.5319L243.454 5.82979H269.33ZM215.895 3.38298C218.419 3.38298 220.418 3.91489 221.785 4.87234V4.23404H222.206V4.65957L221.996 4.87234V5.08511C223.679 6.14894 224.941 8.2766 225.782 11.3617L226.624 18.1702L226.414 18.383H226.203L219.156 18.8085C218.63 13.2766 217.578 10.5106 216.21 10.5106H215.158C213.686 11.0426 213.055 12.1064 213.055 13.7021V14.5532C213.055 17.4255 215.579 21.3617 220.628 26.5745C224.205 30.8298 225.993 35.2979 225.993 40.0851H225.782L225.993 40.2979L225.362 43.9149L225.572 44.5532C225.151 44.5532 224.941 44.8723 224.941 45.4043C222.942 48.383 220.418 49.8723 217.262 49.8723H216.21C212.634 49.8723 209.899 48.7021 208.111 46.4681C206.744 46.2553 205.797 43.1702 205.376 37C207.059 36.5745 209.584 36.2553 212.739 36.1489C213.265 40.9362 214.107 43.383 215.264 43.383H216.316C217.367 42.9574 217.788 41.7872 217.788 39.9787C217.788 36.3617 215.264 32.2128 210.109 27.5319C206.533 23.5957 204.85 19.766 204.85 15.9362V15.2979C204.429 15.2979 204.219 15.1915 204.219 14.8723V14.766H204.85V13.4894C204.85 8.06383 207.901 4.76596 213.896 3.38298H215.895ZM190.439 16.4681V16.7872L190.965 17.3191V16.0426L190.439 16.4681ZM166.983 21.5745H167.193L176.976 21.7872V21.5745L176.45 19.4468L176.66 19.1277V18.9149C176.029 16.0426 174.661 14.6596 172.452 14.6596H171.927C169.507 14.6596 167.824 17 166.983 21.5745ZM190.439 12.5319H191.176V13.0638H190.86L190.439 12.5319ZM188.546 11.6809H189.072V12.2128H188.02L188.546 11.6809ZM190.86 10.617V11.3617H190.545L190.019 10.8298V10.617H190.86ZM170.454 3.48936H173.294C176.66 3.48936 180.026 4.76596 183.602 7.21277L185.916 9.87234L186.232 9.55319H186.548L186.758 11.4681L187.073 11.2553H187.599V11.7872L187.284 12.1064V12.3191L187.599 12.6383H187.915L188.125 12.3191V13.0638L187.915 13.383L189.703 16.7872L189.493 18.383L190.019 18.9149C190.019 18.1702 190.229 17.8511 190.545 17.8511L190.019 15.7234H191.071L191.597 16.2553V17.8511L190.545 18.1702L190.755 18.383V18.9149L189.703 19.1277V19.8723H190.545L190.019 20.4043L190.229 25.7234V29.766L190.019 29.9787V30.1915L166.878 29.6596C166.878 33.5957 168.561 36.0426 171.927 37.1064L173.189 37.3192C175.924 37.3192 178.764 35.9362 181.814 33.0638L189.703 40.2979C186.022 45.617 179.816 48.2766 171.085 48.2766V48.4894C165.51 47.4255 161.513 45.7234 158.988 43.4894C156.885 41.4681 155.833 39.5532 155.833 37.6383L155.622 37.3192L155.833 35.9362L155.622 35.1915C155.938 35.1915 156.148 34.6596 156.148 33.5957H156.254L156.043 32.8511L156.254 32.5319V32.3191L156.043 31.4681L156.254 31.2553L155.728 30.7234V30.4043H156.254V30.1915L156.043 29.9787L156.254 29.766V29.4468L156.043 28.383L156.254 28.1702H156.464L156.254 27.8511V27.6383L156.78 27.1064L156.254 25.5106C155.728 25.5106 155.517 25.2979 155.517 24.9787C155.517 24.6596 155.833 24.4468 156.569 24.4468L156.254 24.234V23.9149L156.78 23.383L156.043 19.9787L157.621 19.4468V19.1277L156.254 17V16.2553L156.464 16.0426L156.254 15.7234V15.5106C156.99 14.5532 157.305 13.8085 157.305 13.0638L156.569 12.3191L157.305 12L156.78 11.4681C158.568 8.17021 161.934 5.7234 167.088 4.02128L170.454 3.48936ZM121.752 13.0638L121.016 17.4255L121.752 24.766H124.697C129.01 24.766 131.429 23.2766 131.955 20.4043C131.955 15.5106 129.326 13.0638 123.961 13.0638H121.752ZM117.439 7.21277C130.483 7.85106 137.004 10.617 137.004 15.2979L136.268 16.0426V16.7872L137.004 19.6596H136.268L137.004 20.4043V21.1489L132.586 29.234H128.169L137.635 47.6383V49.1277L136.899 48.383L136.163 49.1277H135.427L134.69 48.383L134.164 49.1277H133.428C132.586 49.0213 129.641 44.3404 124.697 35.1915C123.751 35.0851 123.014 33.383 122.488 30.0851H121.016V32.3191L121.752 37.4255L121.016 44.1277V47.7447L119.543 49.234H115.862V41.8936L115.231 41.0426L115.967 40.2979V22.6383L116.703 18.2766L115.967 17.5319V16.7872L117.439 7.21277Z" fill="white"/>
<path d="M82.0965 12.8511V13.0638L82.2017 19.766L81.9914 19.9787L82.0965 21.1489L81.9914 22.1064L82.6225 22.2128L82.8329 22H83.0432V22.2128C85.3573 22.1064 86.4092 21.3617 86.6196 20.1915L87.0403 17.9574C87.5663 15.2979 86.304 13.5957 84.3055 12.8511L84.0951 13.0638H83.8847L83.6744 12.7447L83.464 12.9574L82.0965 12.8511ZM88.3026 3.38298C93.6671 3.59574 98.085 6.14894 99.0317 10.9362L99.9784 15.617L99.768 15.8298L99.8732 19.5532C99.3473 21.7872 98.8213 24.234 97.2435 26.2553C94.2983 30.1915 88.9337 31.5745 82.0965 30.9362V31.1489L82.2017 47L70 47.3191V4.02128C76.6268 3.59574 82.5173 3.17021 88.3026 3.38298Z" fill="white"/>
<path d="M421.326 35.8298H421.641L421.852 36.6809H421.641L421.326 36.2553V35.8298ZM421.431 25.5106H421.852L422.062 26.2553H421.641L421.431 25.5106ZM420.905 13.9149H421.115V14.3404L420.694 14.766L420.484 14.5532V14.3404L420.905 13.9149ZM420.905 12.7447H421.115L421.536 13.1702V13.5957L421.115 14.0213L420.905 12.7447ZM409.019 7.42553L409.439 7.85106L409.229 26.8936L409.019 28.4894L409.229 28.7021L409.019 29.6596V37.3192L408.808 38.0638L409.019 38.9149V40.5106C409.019 42.8511 409.755 44.0213 411.333 44.0213C412.805 44.0213 413.437 41.1489 413.437 35.4043L413.647 18.1702H413.857L413.647 17.9574L413.857 17V7.85106L414.278 7.42553H419.853V7.85106C419.643 8.38298 419.222 8.59574 418.906 8.59574V8.80851H419.222V9.02128L418.906 9.55319C419.538 9.55319 419.853 9.76596 419.853 9.97872L419.643 10.5106H419.853L420.379 10.9362C420.169 11.5745 419.853 11.8936 419.643 11.8936L419.853 12.1064V12.5319C419.117 12.5319 418.696 12.6383 418.696 12.8511C419.117 12.8511 419.222 12.9574 419.222 13.2766L419.012 13.8085L419.222 14.0213L418.906 14.4468L419.117 14.6596H419.327L419.958 14.234L420.379 14.9787L420.169 15.617H420.694L420.274 15.9362V15.8298C419.958 15.8298 419.643 16.2553 419.117 17L419.537 17.4255L419.117 19.0213L420.274 19.9787V20.2979C419.643 20.8298 419.327 21.4681 419.327 21.8936V23.0638C419.853 23.0638 420.169 23.1702 420.169 23.4894L419.958 23.7021V23.9149C420.484 23.9149 420.694 24.4468 420.694 25.2979V25.5106L420.484 26.2553L420.694 26.8936H420.484L420.694 27.1064V30.0851L420.905 30.8298L420.484 33.9149L420.694 34.5532H420.484L420.694 35.0851L420.484 35.8298L420.694 36.6809H420.484L420.694 36.7872C420.694 45.7234 417.644 50.0851 411.648 50.0851H411.228C404.811 50.0851 401.445 46.5745 401.55 39.5532L402.076 7.6383L402.287 7.42553H409.019ZM378.725 24.4468V27.1064H378.935V24.4468H378.725ZM378.62 18.0638V19.234H378.83V18.0638H378.62ZM378.409 11.1489L378.83 14.234H379.04V11.5745L378.62 11.1489H378.409ZM362.631 7V41.5745H379.777V34.8723H370.52L370.099 34.4468V7H362.631ZM356.846 3.38298C363.683 3.48936 369.573 3.80851 369.573 4.23404V4.44681C370.099 4.02128 370.52 3.80851 371.046 3.80851L372.414 4.02128H372.834V3.80851L375.254 4.02128H380.303L380.513 5.08511L380.197 5.19149V5.40426L380.618 6.46809H380.408L379.777 6.04255H377.988V8.70213L378.199 8.48936L378.409 8.70213H380.618L380.829 8.48936H381.039L381.67 10.5106V13.5957L381.46 17.8511L381.67 18.0638V18.2766L381.46 19.1277L381.67 31.1489V42.4255C381.67 45.5106 381.46 47.1064 381.039 47.1064H380.618L379.987 46.6808H378.409L377.778 47.1064H376.095L375.464 46.6808H373.465L372.834 47.1064H370.836L370.205 46.6808H368.837C368.311 47.1064 367.365 47.3191 365.997 47.3191H356.741L356.32 46.8936V3.80851L356.846 3.38298ZM308.039 29.5532C307.408 38.8085 311.72 45.1915 319.399 47.9574C321.924 48.9149 324.553 49.0213 327.078 49.0213H327.499C334.441 49.0213 339.069 44.9787 341.383 36.7872V36.5745L332.337 32.5319C330.865 37.3192 328.866 39.766 326.131 39.766H325.605C320.977 39.766 318.663 36.5745 318.663 30.1915C318.663 24.0213 320.03 19.8723 322.87 17.7447C323.607 17.2128 324.658 16.6809 326.131 16.6809C329.076 16.5745 331.18 18.4894 332.653 22.2128V22.9574L342.33 21.3617C341.068 16.1489 339.069 12.3191 336.334 10.5106C333.179 8.38298 329.918 7.53191 326.657 7.53191H323.922C315.823 7.53191 309.406 12.5319 308.67 22.9574L308.039 29.5532Z" fill="white"/>
<path d="M754.664 33.383H754.98L755.19 34.1277H754.98L754.664 33.7021V33.383ZM754.769 23.5957H755.085L755.295 24.3404H754.98L754.769 23.5957ZM754.244 12.7447H754.454V13.0638L754.138 13.383L753.928 13.1702V12.9574L754.244 12.7447ZM754.244 11.6809H754.454L754.769 12V12.3191L754.454 12.6383L754.244 11.6809ZM743.094 6.68085L743.409 7L743.199 24.8723L742.988 26.3617L743.199 26.5745L742.988 27.5319V34.766L742.778 35.5106L742.988 36.2553V37.7447C742.988 39.8723 743.725 41.0426 745.197 41.0426C746.565 41.0426 747.091 38.383 747.196 32.9574L747.406 16.6809H747.617L747.406 16.4681L747.617 15.5106V7L747.932 6.68085H753.192V7C752.981 7.53191 752.666 7.74468 752.245 7.74468V7.95745H752.561V8.17021L752.245 8.70213C752.876 8.70213 753.192 8.91489 753.192 9.02128L752.981 9.55319H753.192L753.718 9.97872C753.507 10.5106 753.297 10.8298 752.981 10.9362L753.192 11.1489V11.4681C752.455 11.4681 752.14 11.5745 752.14 11.7872C752.455 11.7872 752.666 11.8936 752.666 12.2128L752.455 12.7447L752.666 12.9574L752.35 13.383L752.561 13.5957H752.771L753.297 13.2766L753.612 14.0213L753.402 14.5532H753.928L753.718 14.766V14.5532C753.402 14.5532 753.086 14.9787 752.666 15.617L752.981 15.9362L752.666 17.4255L753.718 18.383V18.7021C753.086 19.234 752.771 19.766 752.771 20.1915V21.2553C753.297 21.2553 753.507 21.3617 753.507 21.5745L753.297 21.7872V22C753.823 22 754.033 22.5319 754.033 23.2766V23.4894L753.823 24.234L754.033 24.766H753.823L754.033 24.9787V27.7447L754.244 28.4894L753.928 31.4681L754.138 32H753.928L754.138 32.5319L753.928 33.2766L754.138 34.0213H753.928L754.138 34.1277C754.138 42.5319 751.193 46.6808 745.618 46.6808H745.197C739.202 46.6808 735.941 43.383 736.046 36.7872L736.572 6.68085L736.782 6.46809H743.094V6.68085ZM657.471 49.6596L657.261 49.8723V49.5532H657.471V49.6596ZM658.733 49.4468H658.944L659.049 49.5532H659.154C659.154 49.766 658.944 49.9787 658.628 50.1915L658.313 49.766V49.6596C658.207 49.5532 658.418 49.4468 658.733 49.4468ZM665.571 49.234L665.676 49.3404L665.465 49.5532L665.36 49.3404L665.571 49.234ZM664.414 49.234L664.624 49.3404L664.519 49.4468L664.414 49.3404V49.234ZM657.261 48.9149H657.576V49.1277H657.366L657.471 49.234V49.4468H657.366L657.156 49.3404L657.05 49.4468H656.945L656.735 49.3404V49.234L656.84 49.3404H656.945L657.261 48.9149ZM660.416 48.7021H660.627V48.8085L660.416 48.9149H660.311V48.8085L660.416 48.7021ZM659.68 48.7021L659.785 49.0213L659.68 49.1277H659.575L659.47 48.9149V48.7021H659.68ZM656.314 48.0638L656.524 48.1702L656.419 48.2766H656.314L656.209 48.1702V48.0638H656.314ZM660.416 47.8511C660.522 48.1702 660.416 48.383 660.311 48.383L660.206 48.2766L660.101 48.5957L659.89 48.383L660.416 47.8511ZM657.261 47.7447V47.9574L657.156 48.1702L657.05 48.0638L656.945 48.1702V48.2766L657.05 48.1702H657.156V48.2766L656.735 48.8085H656.63L656.735 48.7021L656.63 48.383L657.261 47.7447ZM655.262 47.5319L655.052 47.8511V47.7447L655.262 47.5319ZM659.049 47.3191L659.154 47.4255L659.049 47.5319H658.944L658.839 47.4255V47.3191H659.049ZM655.578 47.3191L655.683 47.4255L655.578 47.5319H655.473L655.367 47.3191H655.578ZM653.579 46.4681H653.79V46.6808H653.579V46.4681ZM658.628 46.0425L658.733 46.1489H658.628L658.733 46.2553L658.628 46.4681L658.313 46.2553C658.207 46.1489 658.418 46.1489 658.628 46.0425ZM655.157 45.5106H655.262L655.367 45.617L655.262 45.8298L655.473 46.2553V46.3617C655.262 46.7872 655.157 47.1064 655.052 47.3191H654.841L655.052 46.5745L654.947 46.4681V46.3617L655.052 46.1489L654.947 46.0425H654.841C654.947 45.7234 654.947 45.5106 655.157 45.5106ZM650.739 45.5106L650.634 45.7234L650.739 45.8298H650.844L650.739 45.5106ZM653.053 45.2979L653.264 45.4043V45.5106H653.159V45.2979H653.053ZM663.151 48.8085H663.572L663.993 49.234V49.4468L663.572 49.8723L662.941 49.4468L663.151 48.8085ZM660.942 45.9362H661.573V46.3617L661.153 46.7872H660.942V45.9362ZM661.994 45.1915H662.205V45.8298H661.573V45.617L661.994 45.1915ZM653.264 44.766H653.684L653.895 45.5106H653.474L653.264 44.766ZM653.159 41.4681L653.474 44.1277H653.159L652.948 43.2766L653.159 42.6383L652.948 42.8511H652.738L652.527 42.6383L652.738 42.4255V42.2128L652.527 41.5745L652.738 41.3617H653.159V41.4681ZM662.836 17.4255C662.836 18.383 662.52 19.5532 662.099 21.0426H662.31L661.258 24.4468H661.679V24.6596C661.258 24.6596 660.627 25.7234 660.627 27.7447V27.9574L660.837 28.1702V28.383H660.416V29.0213H660.837V29.4468H660.627L660.416 29.234H660.206L659.575 32.1064L663.993 32.5319V32.3191L662.941 17.5319H662.836V17.4255ZM657.261 7.74468C666.202 8.2766 670.62 8.80851 670.725 9.12766L676.615 47.6383L676.405 47.8511H676.195C669.042 47.8511 665.36 47 665.36 46.6808L664.729 41.2553L657.682 40.8298C656.945 44.5532 656.314 46.4681 655.683 46.4681C649.056 46.1489 645.585 45.7234 645.269 45.5106C647.794 36.5745 651.791 24.0213 657.156 7.95745L657.261 7.74468ZM658.523 51.6808H658.733V52H658.523V51.6808ZM659.47 50.5106H660.101L660.416 50.7234V51.3617H660.101L658.733 50.9362V50.7234H658.839L659.68 50.8298L659.47 50.5106ZM671.777 25.2979H672.092V25.8298H671.882L671.777 25.2979ZM671.987 23.383H672.197V23.7021H671.987V23.383ZM669.883 42.5319H670.409L670.514 43.383L670.304 43.5957C670.514 43.5957 670.83 44.0213 671.251 44.8723V44.9787C670.935 44.9787 670.725 45.1915 670.514 45.617L670.62 45.7234H670.409C670.094 45.7234 669.883 44.6596 669.883 42.5319ZM664.624 23.0638V23.2766H664.729L665.36 22.7447V22.6383L664.624 23.0638ZM663.782 23.0638V23.1702H663.888C663.888 22.8511 664.098 22.6383 664.519 22.6383V22.4255H664.414C664.203 22.4255 663.888 22.6383 663.782 23.0638ZM665.571 21.5745L664.939 22.2128V22.3191H665.255C665.255 21.8936 665.465 21.6809 665.886 21.6809V21.5745H665.571ZM665.571 20.9362C665.571 21.2553 665.465 21.3617 665.255 21.3617V21.4681H665.465L665.676 21.0426V20.9362H665.571ZM664.939 20.4043L665.045 20.5106V20.617L664.939 20.9362L665.36 20.617V20.2979H665.255L665.15 20.4043H664.939ZM664.624 20.4043H664.729L664.939 20.0851H664.834L664.624 20.4043ZM661.889 22.5319C661.889 23.8085 662.415 24.5532 663.256 24.5532C663.256 24.234 663.362 24.0213 663.467 24.0213L663.572 24.1277V24.234L663.467 24.3404H663.572L664.203 23.9149L664.414 24.234H664.519L664.308 23.4894L663.782 23.8085C663.677 23.8085 663.572 23.7021 663.572 23.383C663.467 23.383 663.362 23.4894 663.362 23.8085H663.256V23.5957C663.256 22.9574 663.362 22.6383 663.782 22.6383V22.5319L663.572 22.3191L663.467 22.4255V22L663.572 22.1064H663.677L663.888 21.8936H663.993L663.888 22V22.1064H663.993L664.414 21.8936L664.308 21.7872V21.4681H664.414L664.729 21.5745V21.0426H664.624L663.993 21.5745H663.782V21.4681L663.888 21.0426L663.782 20.9362L664.519 20.7234V20.617L663.467 20.8298V20.2979L663.993 20.1915L663.888 20.0851V19.9787L663.782 20.0851H663.572V19.8723H663.256C662.31 20.617 661.889 21.5745 661.889 22.5319ZM674.512 38.8085L674.722 39.1277V39.4468H674.512V38.8085ZM664.729 18.9149V19.234H664.834L665.255 19.1277L665.465 19.4468V19.0213L664.729 18.9149ZM672.092 17.9574V18.4894H671.882V18.2766L672.092 17.9574ZM674.827 37.2128L674.932 37.3192C674.827 37.9575 674.722 38.1702 674.512 38.1702L674.406 38.0638V37.5319L674.827 37.2128ZM671.566 17H671.672V17.1064L671.461 17.3191H671.356V17.2128L671.566 17ZM670.935 15.1915V15.5106L671.146 15.2979V15.1915H670.935ZM671.251 14.5532H671.461V14.9787H671.251V14.5532ZM664.834 14.5532V14.8723L665.465 14.4468V14.1277L664.939 14.5532H664.834ZM669.463 35.8298H669.673V36.3617H669.463V35.8298ZM661.573 34.766V34.9787L661.889 34.8723V34.766H661.573ZM662.205 34.6596V34.9787H662.415L662.31 34.6596H662.205ZM661.363 32.3191H661.468L661.679 32.6383V32.9574L661.468 33.1702H661.363V32.3191ZM667.254 28.5957L667.99 28.7021V28.8085L667.779 29.0213L667.674 28.9149L667.569 29.0213H667.464L667.254 28.8085L667.359 28.7021V28.5957H667.254ZM663.362 27.9574H663.782V28.0638L663.572 28.2766H663.362V27.9574ZM663.993 27.1064H664.203V27.3191H664.308L664.203 27.6383L663.782 27.4255L663.677 27.5319V27.3191L663.993 27.1064ZM662.415 26.7872H662.731V26.8936L662.625 27V27.1064L662.731 27.2128L662.625 27.3191H662.52L662.415 26.7872ZM667.779 26.4681L667.885 26.5745V26.6809L667.779 26.7872H667.674L667.569 26.6809V26.5745L667.674 26.4681H667.779ZM665.255 26.3617V26.4681L665.045 26.6809L664.729 26.4681L664.834 26.3617H665.255ZM629.491 20.617L629.597 20.7234V20.8298C628.334 22.5319 627.808 23.4894 627.808 23.7021H627.598C627.072 23.383 626.862 23.2766 626.862 23.0638C627.072 23.0638 627.177 22.8511 627.177 22.5319C627.493 22.5319 627.703 22.4255 627.914 22.2128L628.019 22.3191H628.124C628.229 21.6808 628.439 21.2553 628.86 20.9362C628.86 20.7234 629.071 20.617 629.491 20.617ZM658.207 39.6596L658.313 39.766L658.102 40.0851H657.997V39.9787L658.207 39.6596ZM653.474 39.5532V39.6596L653.264 39.8723L653.159 39.766V39.6596L653.264 39.5532H653.474ZM657.997 37.6383L657.471 38.0638L657.366 37.9574V37.8511L657.997 37.6383ZM659.259 37.1064L659.47 37.4255L658.523 37.9574H658.418V37.7447L659.259 37.1064ZM659.785 36.7872L660.101 37.1064L659.996 37.2128H659.89L659.47 36.8936L659.575 36.7872H659.785ZM655.367 36.7872L655.578 37.2128L655.473 37.3192H655.262L655.052 37L655.367 36.7872ZM654.631 36.3617L654.841 36.5745L654.736 36.6809H654.526L654.631 36.3617ZM656.104 12.3191V12.6383H655.893V12.5319L656.104 12.3191ZM666.622 34.4468L667.043 34.5532V34.234H666.622V34.4468ZM664.308 34.0213L664.203 34.3404L664.308 34.9787H664.414L664.519 34.5532L664.308 34.0213ZM671.04 33.9149C671.04 34.1277 670.935 34.234 670.725 34.234V34.3404H671.04L671.146 34.234V33.9149H671.04ZM673.67 33.9149L673.775 34.234H673.88V33.8085L673.775 33.9149H673.67ZM672.723 33.383V34.0213H672.828V33.383H672.723ZM670.935 33.1702L671.04 33.7021H671.146V33.2766L671.04 33.1702H670.935ZM673.775 33.0638V33.7021H673.88V33.0638H673.775ZM619.078 10.0851V10.617H619.183V10.0851H619.078ZM674.722 32.9574C675.143 33.0638 675.353 33.1702 675.353 33.383C675.353 33.5957 675.248 33.7021 674.932 33.7021V33.8085H675.458V33.383L674.932 32.9574H674.722ZM620.13 9.76596V10.4043H620.235V9.76596H620.13ZM656.314 12.5319H656.84L656.419 12.8511L656.314 12.7447V12.5319ZM624.653 23.1702V25.617H624.863V23.1702H624.653ZM624.442 17.2128V18.383H624.653V17.2128H624.442ZM624.232 10.7234L624.548 13.5957H624.758V11.0426L624.442 10.617H624.232V10.7234ZM609.401 6.89362V39.4468H625.599V33.0638H616.869L616.553 32.7447V6.89362H609.401ZM606.245 3.38298C612.661 3.48936 615.922 3.80851 615.922 4.12766V4.34043C616.343 3.91489 616.869 3.70213 617.29 3.80851L618.657 4.02128H619.078V3.80851L621.392 4.02128H626.125L626.336 4.97872L626.125 5.19149V5.40426L626.546 6.3617H626.336L625.81 6.04255H624.127V8.38298L624.337 8.17021L624.548 8.38298H626.651L626.862 8.17021H627.072L627.703 10.0851V12.9574L627.493 17L627.703 17.2128V17.4255L627.493 18.1702L627.703 29.5532V40.0851C627.703 43.0638 627.493 44.5532 627.072 44.5532H626.756L626.125 44.1277H624.653L624.022 44.5532H622.549L621.918 44.1277H620.024L619.499 44.5532H617.605L616.974 44.1277H615.607C615.081 44.5532 614.239 44.766 612.977 44.766H606.56L606.14 44.3404V3.80851L606.245 3.38298ZM586.575 19.8723V20.0851L586.996 20.5106V19.3404L586.575 19.8723ZM566.169 24.234H566.379L574.899 24.4468V24.234L574.478 22.4255L574.689 22.2128V22C574.689 19.4468 572.901 18.2766 571.007 18.2766H570.586C568.272 18.2766 566.8 20.1915 566.169 24.234ZM586.575 16.3617H587.311V16.7872H587.101L586.575 16.3617ZM584.892 15.617H585.313V16.0426H584.366L584.892 15.617ZM586.259 14.766H586.89V15.4043H586.68L586.259 14.9787V14.766ZM569.114 8.48936H571.638C574.584 8.48936 578.16 8.91489 580.579 11.7872L582.578 14.1277L582.788 13.9149H582.999L583.209 15.5106L583.419 15.2979H583.84V15.7234L583.63 15.9362V16.1489L583.84 16.3617H584.05L584.261 16.1489V16.7872L584.05 17L585.628 19.9787L585.418 21.3617L585.839 21.7872C585.839 21.1489 585.944 20.8298 586.259 20.8298L585.839 19.0213H586.785L587.206 19.4468V20.8298L586.259 21.0426L586.47 21.2553V21.6809L585.523 21.8936V22.5319H586.259L585.839 22.9574L586.049 27.5319V31.0426L585.839 31.2553V31.4681L565.748 31.0426C565.748 34.4468 567.115 37 570.061 37.5319L571.218 37.7447C573.532 38.1702 576.056 36.4681 578.791 34.0213L585.628 40.2979C582.367 44.8723 577.003 47.2128 569.429 47.2128V47.4255C564.591 46.4681 561.12 45.0851 558.911 43.0638C557.122 41.3617 556.176 39.6596 556.176 37.9574L555.965 37.7447L556.176 36.5745L555.965 35.9362C556.281 35.9362 556.386 35.5106 556.386 34.5532H556.597L556.386 33.9149L556.597 33.7021V33.4894L556.386 32.7447L556.597 32.5319L556.176 32.1064V31.8936H556.597V31.6809L556.386 31.4681L556.597 31.2553V31.0426L556.386 30.0851L556.597 29.8723H556.807L556.597 29.6596V29.4468L557.017 28.9149L556.597 27.5319C556.176 27.5319 555.965 27.4255 555.965 27.1064C555.965 26.7872 556.281 26.5745 556.807 26.5745L556.597 26.3617V26.1489L557.017 25.7234L556.386 22.7447L557.754 22.3191V22.1064L556.597 20.2979V19.6596L556.807 19.4468L556.597 19.234V19.0213C557.228 18.1702 557.543 17.5319 557.543 16.8936L556.912 16.2553L557.543 16.0426L557.122 15.617C558.7 12.7447 561.54 9.87234 566.063 9.12766L569.114 8.48936ZM585.628 7.85106L586.259 8.2766L586.47 8.06383L586.68 8.2766V11.4681H586.47L586.049 11.0426L586.259 10.8298V10.617H586.049C585.733 10.617 585.628 11.0426 585.628 11.7872L585.418 12H584.682L584.05 11.2553C585.313 10.617 585.839 10.1915 585.839 9.87234V9.65957C585.102 9.65957 584.682 9.55319 584.682 9.23404L582.893 11.1489L582.262 10.7234L581.841 11.1489H581.21V10.617C581.631 9.87234 582.262 9.44681 582.788 9.44681V10.1915C583.104 10.1915 583.314 9.55319 583.524 8.2766L584.156 8.06383L585.523 8.48936H585.733L585.523 8.2766V7.85106H585.628ZM587.627 6.46809V7.31915H587.206V6.89362L587.627 6.46809ZM778.963 18.4894L779.068 18.9149C779.383 21.3617 781.487 24.766 785.379 28.5957L786.01 29.6596L785.8 29.9787V30.1915L786.115 30.4043V30.617C786.326 32.4255 785.484 33.7021 784.853 33.8085L784.432 33.9149C783.801 33.7021 783.38 33.383 783.38 32.8511L783.486 30.2979L777.805 29.3404L777.28 32.6383L777.49 32.8511L777.595 33.2766L777.385 33.5957C777.595 35.7234 779.383 37.5319 782.644 38.8085L785.695 39.1277C790.428 39.5532 792.427 35.1915 791.585 29.0213C791.375 27.6383 789.271 24.8723 785.695 20.9362L784.958 18.4894C784.222 16.1489 785.169 14.766 786.536 14.5532L787.483 15.1915L787.167 18.9149L793.058 19.5532L792.952 19.1277H793.163L792.847 18.9149V18.7021L793.058 16.7872L792.847 15.4043L793.058 15.1915C791.585 10.8298 788.429 9.02128 783.801 9.55319C781.277 9.87234 778.752 11.6809 778.752 15.0851L778.963 18.4894ZM774.65 2H774.965L799.684 4.12766L799.79 4.55319L799.895 27.8511C799.895 29.5532 799.159 30.7234 798.948 31.1489C798.527 32.3191 798.633 33.9149 798.843 35.1915V35.4043L799.895 37.4255L800 47.9574L774.755 47.6383C774.65 22.3191 775.281 6.14894 774.65 2.85106V2Z" fill="white"/>
<path d="M702.281 10.4043L701.545 14.8723L702.281 22.3191H705.226C709.644 22.3191 712.379 20.8298 712.589 17.8511C712.905 12.9574 709.854 10.4043 704.49 10.4043H702.281ZM697.863 4.44681C711.012 5.08511 717.638 7.85106 717.638 12.5319L716.902 13.2766V14.0213L717.638 17H716.902L717.638 17.7447V18.4894L713.221 26.6809H708.802L718.269 45.1915V46.6808L717.533 45.9362L716.902 46.6808H716.166L715.429 45.9362L714.693 46.6808H713.957C713.115 46.6808 710.17 41.8936 705.226 32.5319C704.28 32.4255 703.543 30.7234 703.017 27.3191H701.545V29.6596L702.281 34.8723L701.545 41.5745V45.2979L700.072 46.6808H696.391V39.234L695.654 38.4894L696.391 37.7447V19.9787L697.127 15.5106L696.391 14.766V14.0213L697.863 4.44681ZM696.706 37.3192H697.232V40.4043H696.706V37.3192ZM697.022 31.8936H697.442V36.5745H697.022V31.8936ZM701.229 31.0426L701.334 31.1489L701.229 31.2553H701.124L701.019 31.1489V31.0426H701.229ZM711.012 44.3404H711.432V44.6596C711.011 44.6596 710.801 44.766 710.801 45.0851H710.591V44.766L711.012 44.3404ZM699.756 36.8936L699.862 37V37.1064L699.756 37.3192H699.441V37.1064L699.756 36.8936ZM702.491 35.1915V35.9362H702.597V35.1915H702.491ZM695.233 33.0638V33.5957H695.339V33.0638H695.233ZM696.285 9.97872V10.4043L696.496 10.0851V9.76596L696.285 9.97872ZM697.127 9.44681V9.76596L697.232 10.1915H697.337V9.97872L697.232 9.44681H697.127ZM697.548 32.2128V32.3191H697.758L698.179 32.2128V32.1064H698.073L697.548 32.2128ZM695.233 32V32.8511H695.339V32H695.233ZM701.334 31.8936V32.1064L701.439 32.2128H701.755V32.1064L701.334 31.8936ZM699.231 32.3191L699.546 32L699.441 31.7872H699.231V32.3191ZM696.811 8.48936L696.496 9.34043V9.65957C696.811 9.65957 696.916 9.44681 696.916 9.02128V8.48936H696.811ZM700.177 30.9362V31.0426L700.282 31.4681H700.388V31.3617L700.282 30.9362H700.177ZM699.02 30.9362V31.5745H699.231L699.336 30.9362H699.02ZM702.386 30.617V31.5745H702.491V30.617H702.386Z" fill="white"/>
<path d="M523.252 27.6383L522.937 27.9574V28.1702L522.516 40.1915H523.463C526.408 40.1915 527.88 38.2766 527.88 34.4468V32.8511C527.88 29.4468 526.303 27.6383 523.252 27.6383ZM524.199 9.23404L523.463 20.7234H524.199C527.144 20.7234 528.617 18.7021 528.617 14.766L528.406 14.5532V14.3404L528.617 13.5957C528.617 10.617 527.144 9.23404 524.199 9.23404ZM514.522 4.34043L521.78 4.44681L526.408 4.65957L526.723 4.44681H526.934L527.88 4.65957H528.932L530.195 4.44681V4.65957L530.405 4.44681C533.035 4.44681 534.823 6.25532 536.085 9.97872C536.295 10.7234 536.611 11.8936 536.611 13.4894C536.611 17.9574 535.138 20.9362 532.404 22.7447C531.141 23.5957 529.984 24.0213 528.932 24.0213V24.234C531.036 24.234 533.245 26.0426 535.349 29.766C535.875 30.8298 536.085 32 536.085 33.2766V35.5106C536.085 41.1489 533.245 46.1489 526.934 47L524.725 47.3191C520.307 47.8511 517.151 46.8936 515.573 46.5745L515.153 46.4681L515.048 46.0425V44.766L514.311 41.7872L515.258 24.3404L514.416 24.234L514.522 4.34043Z" fill="white"/>
<path d="M20.0004 2.30769V2.42308C20.2329 2.53846 20.3492 2.65384 20.3492 2.65384C20.3492 2.65384 20.3492 2.65384 20.4655 2.65384L20.698 1.84615H20.9306C21.1632 1.26923 21.3957 0.80769 21.3957 0.692306C21.3957 0.80769 21.1632 1.03846 20.9306 1.26923H20.5818C20.4655 1.38461 20.2329 1.5 19.8841 1.61538L19.7678 1.96154L19.419 2.07692L19.3027 2.19231C19.3027 2.42308 19.419 2.65384 19.6515 2.88461C19.8841 2.53846 20.0004 2.30769 20.0004 2.30769Z" fill="#E7792B"/>
<path d="M50.3492 43.7308H50.5817C50.5817 43.8462 50.5817 43.8462 50.5817 43.9616H50.698C50.8143 43.9616 50.9306 43.9615 50.9306 43.8462H50.8143C50.8143 43.7308 50.8143 43.7308 50.8143 43.6154L50.9306 43.5C50.4655 43.5 50.3492 43.6154 50.3492 43.7308C50.3492 43.6154 50.3492 43.6154 50.3492 43.7308Z" fill="#E7792B"/>
<path d="M51.0462 43.3846C50.93 43.3846 50.9306 43.5 50.9306 43.5C50.9306 43.5 51.0462 43.5 51.0462 43.3846C51.1625 43.5 51.1625 43.5 51.2788 43.6154V43.5C51.2788 43.3846 51.1625 43.3846 51.0462 43.3846Z" fill="#E7792B"/>
<path d="M28.7207 1.38461C28.7207 1.38461 28.837 1.38461 28.9533 1.38461V1.26923C29.7672 1.38461 30.116 1.26923 30.116 0.923075C30.116 0.692305 30.116 0.692306 29.9998 0.692306C29.8835 0.692306 29.7672 0.692306 29.7672 0.80769V1.03846H29.6509C29.6509 0.923075 29.6509 0.923075 29.6509 0.923075V0.80769H29.4184C29.0695 0.692306 28.7207 0.923075 28.7207 1.26923H28.6044V1.5L28.7207 1.38461Z" fill="#E7792B"/>
<path d="M51.6276 44.0769L51.5113 43.7308H51.3951V44.3077C51.5113 44.3077 51.6276 44.1923 51.8602 44.1923C51.8602 44.0769 51.9764 44.0769 51.9764 43.9616C51.9764 43.8462 51.9764 43.7308 51.8602 43.7308C51.8602 43.9616 51.8602 44.0769 51.6276 44.0769Z" fill="#E7792B"/>
<path d="M43.9531 47.1923C43.8369 47.1923 43.8369 47.1923 43.8369 47.1923V47.3077L43.9531 47.1923Z" fill="#E7792B"/>
<path d="M52.9072 43.8462C52.9072 43.7308 52.9072 43.6154 52.9072 43.6154L52.7909 43.5H52.6746V43.7308C52.6746 43.7308 52.5583 43.7308 52.442 43.6154C52.442 43.6154 52.3258 43.6154 52.2095 43.6154V43.9616H52.3258V43.8462C52.3258 43.8462 52.442 43.8462 52.442 43.7308H52.9072C53.0234 43.7308 53.1397 43.7308 53.1397 43.7308V43.6154L52.9072 43.8462Z" fill="#E7792B"/>
<path d="M52.0928 44.3077C52.0928 44.6539 52.2091 44.6539 52.5579 44.7692V44.6539C52.4416 44.4231 52.3253 44.3077 52.0928 44.3077Z" fill="#E7792B"/>
<path d="M2.79101 39.5769H2.90729C2.90729 39.4616 3.02357 39.3462 3.02357 39.3462H2.90729C2.90729 39.2308 2.90729 39.2308 2.79101 39.1154C2.67473 39 2.67473 39 2.55845 39C2.55845 39 2.55845 39 2.44217 39V39.1154H2.55845C2.55845 39.1154 2.67473 39.2308 2.79101 39.5769Z" fill="#E7792B"/>
<path d="M2.44217 39.1154C2.20962 39.3462 2.09276 39.4616 2.09276 39.4616C2.20904 39.4616 2.32532 39.4616 2.4416 39.4616C2.32532 39.3462 2.3259 39.2308 2.44217 39.1154Z" fill="#E7792B"/>
<path d="M5.92974 45.8077C5.81346 45.8077 5.34835 45.8077 4.65067 45.9231C4.5344 45.9231 4.41812 46.1539 4.18556 46.6154C4.06928 46.8462 3.953 47.0769 3.953 47.3077C3.953 47.5385 3.953 47.8846 4.06928 48.3462C4.18556 48.3462 4.18556 48.3462 4.30184 48.4616C4.5344 48.8077 4.65067 49.1539 4.65067 49.2692C4.65067 49.3846 4.65067 49.3846 4.5344 49.5C4.41812 49.6154 4.41812 49.7308 4.41812 49.7308C4.41812 50.3077 4.76695 50.6539 5.69718 50.8846C5.69718 50.7692 5.69718 50.7692 5.69718 50.7692C5.69718 50.6539 5.69718 50.4231 5.81346 50.3077C6.1623 50.1923 6.39485 50.0769 6.51113 49.9616C6.51113 49.8462 6.51113 49.7308 6.39485 49.5C6.27858 49.2692 6.27858 49.1539 6.27858 49.0385C6.27858 48.9231 6.27858 48.8077 6.39485 48.8077C6.51113 48.6923 6.51113 48.5769 6.62741 48.4616C6.74369 48.2308 6.74369 48 6.74369 47.8846C6.74369 46.5 6.51113 45.8077 5.92974 45.8077Z" fill="#E7792B"/>
<path d="M8.72048 40.2692C8.72048 40.0385 8.72048 39.8077 8.72048 39.4616C8.6042 39.2308 8.48792 39.1154 8.37164 39.1154C8.0228 39.1154 7.90652 39.2308 7.79025 39.4616C7.79025 39.5769 7.90652 39.6923 8.13908 39.8077C8.25536 39.8077 8.37164 39.8077 8.6042 39.8077C8.72048 39.8077 8.72048 39.9231 8.72048 39.9231C8.6042 40.0385 8.48792 40.0385 8.37164 40.0385C8.25536 40.0385 8.13908 40.0385 8.0228 39.9231V39.8077C7.90652 39.8077 7.90652 39.8077 7.79025 39.9231C7.79025 39.9231 7.90652 40.0385 8.0228 40.0385H7.79025C7.79025 40.1539 7.79025 40.3846 7.79025 40.7308C7.90652 40.7308 7.90652 40.8462 8.0228 40.8462V40.6154H8.13908C8.13908 40.6154 8.25536 40.6154 8.37164 40.6154C8.37164 40.5 8.48792 40.5 8.48792 40.5C8.72048 40.5 8.83675 40.3846 8.83675 40.3846C8.83675 40.3846 8.83675 40.3846 8.83675 40.2692H8.72048Z" fill="#E7792B"/>
<path d="M17.7915 2.19231C17.9077 2.19231 17.9077 2.19231 18.024 2.19231L18.1403 1.84615H18.6054L18.7217 1.73077C18.7217 1.61539 18.7217 1.61539 18.7217 1.61539H18.6054C18.3729 1.61539 18.3729 1.5 18.3729 1.5C18.3729 1.5 18.6054 1.38462 18.838 1.26923C19.0705 1.15385 19.1868 1.03846 19.1868 0.923077H19.0705C19.0705 0.923077 19.0705 0.923077 18.9543 0.923077C18.9543 0.807693 19.0705 0.807693 19.0705 0.692308C19.0705 0.461539 19.0705 0.230769 18.9543 0C18.9543 0 18.7217 0.115385 18.3729 0.230769V0.346154H18.1403V0.461539H18.024C18.024 0.461539 18.024 0.461539 17.9077 0.461539C17.7915 0.576923 17.7915 0.807693 17.7915 0.923077H17.9077C17.9077 0.923077 17.9077 0.923077 18.024 0.923077C18.024 1.03846 18.024 1.03846 18.024 1.15385C18.024 1.5 17.7915 1.61539 17.4426 1.5V1.38462C17.4426 1.26923 17.4426 1.26923 17.3264 1.26923C17.2101 1.38462 17.2101 1.5 17.2101 1.73077C17.2101 1.84615 17.2101 1.84615 17.2101 1.96154L17.7915 2.19231Z" fill="#E7792B"/>
<path d="M3.6045 1.61538C3.6045 1.73077 3.48822 1.73077 3.48822 1.84615C3.37194 1.84615 3.37194 1.84615 3.37194 1.84615H3.13938L3.0231 1.96154C3.0231 1.96154 3.0231 1.96154 3.0231 2.07692H3.48822L3.6045 1.96154V1.61538C3.72078 1.26923 3.72078 1.03846 3.6045 0.807692H3.48822C3.37194 0.807692 3.25566 0.807692 3.25566 0.807692H3.37194C3.37194 1.03846 3.37194 1.26923 3.37194 1.26923C3.6045 1.5 3.6045 1.5 3.6045 1.61538Z" fill="#E7792B"/>
<path d="M2.55793 39.3462H2.32537V39.4616L2.55793 39.3462Z" fill="#E7792B"/>
<path d="M1.97674 37.8462C1.51162 37.5 1.16279 37.2692 0.93023 37.2692C0.697672 37.2692 0.465115 37.5 0.348836 37.9616C0.116279 38.4231 0.116279 38.7692 0 39.1154C0 39.3462 0 39.5769 0.116279 39.6923L0.93023 39.8077C1.04651 39.6923 1.16279 39.4616 1.39534 39.1154H1.51162C1.51162 39 1.6279 38.7692 1.6279 38.4231L1.97674 38.3077V37.8462Z" fill="#E7792B"/>
<path d="M2.67424 41.7692H2.55796L2.44168 41.3077C2.3254 41.1923 2.20912 41.1923 2.20912 41.1923C1.97657 41.1923 1.97657 41.3077 1.86029 41.6539C1.86029 42 2.09284 42.2308 2.67424 42.4616C2.79052 42.3462 2.9068 41.7692 3.25563 40.7308C3.13935 40.7308 2.9068 40.6154 2.79052 40.6154C2.67424 40.6154 2.67424 41.0769 2.67424 41.7692Z" fill="#E7792B"/>
<path d="M3.02284 1.61539C3.13911 1.61539 3.13911 1.61539 3.25539 1.5L3.2555 1.38462C2.90666 1.38462 2.79028 1.38462 2.79028 1.5C2.90656 1.61539 2.90656 1.61539 3.02284 1.61539Z" fill="#E7792B"/>
<path d="M55.6982 42.9231H55.8144L55.2331 42.4616V42.3462C55.2331 42.3462 55.2331 42.2308 55.2331 42.1154C55.0005 42 54.7679 41.8846 54.6517 41.8846C54.5354 41.8846 54.4191 42 54.4191 42.1154C54.4191 42.2308 54.4191 42.2308 54.5354 42.3462H54.6517C54.6517 42.3462 54.6517 42.4616 54.7679 42.4616C54.7679 42.5769 54.7679 42.6923 54.7679 42.8077V43.0385C54.7679 43.1539 54.7679 43.2692 54.6517 43.5C54.7679 43.3846 54.8842 43.3846 55.0005 43.3846C55.0005 43.3846 55.1168 43.3846 55.1168 43.5C55.1168 43.6154 55.2331 43.6154 55.2331 43.7308H55.3493C55.3493 43.6154 55.3493 43.5 55.2331 43.3846C55.0005 43.1539 54.8842 42.9231 54.8842 42.8077C54.8842 42.6923 54.8842 42.6923 55.0005 42.6923C55.3493 42.6923 55.4656 42.6923 55.6982 42.9231L55.4656 43.1539H55.5819V43.0385C55.6982 43.0385 55.6982 43.0385 55.6982 42.9231Z" fill="#E7792B"/>
<path d="M55.6974 43.1539C55.6974 43.2693 55.6974 43.2693 55.6974 43.1539V43.2693C56.0462 43.2693 56.1625 43.2693 56.1625 43.1539V43.0385C56.0462 43.1539 55.9299 43.1539 55.6974 43.1539Z" fill="#E7792B"/>
<path d="M57.0936 43.8462L56.9773 43.9616C56.861 43.9616 56.7448 43.8462 56.6285 43.8462L56.5122 43.9616C56.5122 43.9616 56.6285 44.0769 56.9773 44.1923L57.0936 43.8462C56.9773 43.8462 56.9773 43.7308 57.0936 43.8462Z" fill="#E7792B"/>
<path d="M1.62764 21.4616C1.74392 21.4616 1.8602 21.3462 1.8602 21.3462C1.74392 21.3462 1.62764 21.3462 1.62764 21.4616Z" fill="#E7792B"/>
<path d="M53.8365 42.8077V42.6923H53.7202V42.3462L53.4877 42.4616H53.604V42.9231H53.8365V43.0385H53.9528C53.9528 42.9231 53.9528 42.8077 53.9528 42.6923H54.1853L54.3016 42.577C54.3016 42.577 54.3016 42.577 54.3016 42.4616C54.0691 42.8077 53.9528 42.8077 53.8365 42.8077Z" fill="#E7792B"/>
<path d="M57.2097 43.3846C57.2097 43.2693 57.2097 43.2692 57.326 43.2692H57.5586C57.5586 43.1539 57.5586 43.1539 57.5586 43.1539C57.5586 43.0385 57.5586 43.0385 57.5586 43.0385V43.1539C57.5586 43.1539 57.4423 43.1539 57.4423 43.0385H57.326C57.2097 43.1539 57.2097 43.2693 57.2097 43.5C57.0934 43.5 57.2097 43.5 57.2097 43.3846C57.2097 43.5 57.2097 43.5 57.2097 43.5V43.3846Z" fill="#E7792B"/>
<path d="M6.3946 9.11539H6.27832V9.23077C6.27832 9.23077 6.27832 9.23077 6.27832 9.34616H6.3946C6.3946 9.23077 6.3946 9.23077 6.3946 9.11539Z" fill="#E7792B"/>
<path d="M60 4.96154C59.8837 4.96154 59.7674 4.96154 59.7674 4.96154L59.7669 4.84616H59.0698V4.96154C58.8372 4.96154 58.7209 5.07692 58.4884 5.07692L58.3721 5.19231C58.3721 5.30769 58.3721 5.30769 58.3721 5.30769H58.6047C58.8372 5.19231 59.3023 5.07692 59.8837 4.96154C60 5.19231 60 5.07692 60 4.96154Z" fill="#E7792B"/>
<path d="M57.2082 43.5V43.6154C57.3244 43.6154 57.3244 43.7308 57.4407 43.7308H57.6733C57.6733 43.7308 57.6733 43.7308 57.557 43.6154C57.4407 43.6154 57.4407 43.6154 57.2082 43.5Z" fill="#E7792B"/>
<path d="M59.9997 4.73077C59.8835 4.61539 59.9997 4.61539 59.9997 4.73077C59.7672 4.61539 59.7669 4.73077 59.7669 4.84616C59.8832 4.84616 59.9997 4.73077 59.9997 4.73077Z" fill="#E7792B"/>
<path d="M54.5346 43.3846C54.5346 43.5 54.6517 43.5 54.6517 43.5L54.6509 43.3846H54.5346Z" fill="#E7792B"/>
<path d="M4.07002 5.65385C4.1863 5.65385 4.1863 5.65385 4.1863 5.65385V5.53846C4.1863 5.53846 4.1863 5.65385 4.07002 5.65385Z" fill="#E7792B"/>
<path d="M4.76763 8.19231L5.00019 8.07692V7.96154C5.00019 7.96154 5.00019 7.84615 5.11647 7.73077C5.23275 7.61539 5.23275 7.61539 5.34903 7.61539C5.58159 7.61539 5.93042 7.73077 6.27926 7.96154V8.53846H6.39554V8.42308H6.51182L6.62809 8.53846V8.65385H6.86065V8.42308C6.97693 8.42308 6.97693 8.42308 7.09321 8.53846V8.65385C7.09321 8.65385 7.09321 8.76923 7.20949 8.76923H7.32577C7.32577 8.53846 7.09321 8.30769 6.62809 8.07692C6.16298 7.84615 5.81414 7.5 5.58159 7.26923C5.58159 7.03846 5.46531 6.69231 5.23275 6.23077C5.11647 6.23077 5.00019 6.11539 4.76763 5.88462C4.65136 5.76923 4.4188 5.65385 4.4188 5.65385H4.30252V5.76923C4.30252 5.88462 4.18624 6 4.18624 6.23077C4.18624 6.34616 4.18624 6.34615 4.18624 6.46154C4.4188 6.46154 4.53508 6.57692 4.88391 6.69231C4.88391 6.80769 4.88391 6.92308 4.88391 7.03846C4.88391 7.26923 4.65136 7.38462 4.30252 7.5C4.06996 7.61539 3.8374 7.61539 3.48857 7.73077C3.37229 7.73077 3.37229 7.96154 3.37229 8.30769H3.48857V8.42308C3.48857 8.42308 3.48857 8.42308 3.48857 8.53846H3.72113V8.65385C3.8374 8.65385 4.06996 8.65385 4.18624 8.76923C4.18624 8.88462 4.06996 8.88462 4.06996 9V9.11539C4.06996 9.23077 4.18624 9.23077 4.30252 9.23077C4.4188 9.23077 4.4188 9.23077 4.53508 9.23077V9.11539C4.53508 9.11539 4.53508 9.11539 4.53508 9C4.4188 9 4.30252 9 4.18624 9C4.18624 8.53846 4.4188 8.19231 4.65136 8.30769H4.76763L4.88391 8.42308C4.88391 8.42308 4.88391 8.42308 4.76763 8.19231C4.76763 8.30769 4.76763 8.30769 4.76763 8.19231Z" fill="#E7792B"/>
<path d="M2.55793 12.6923C2.55793 12.5769 2.44165 12.4615 2.44165 12.4615L2.32537 12.5769C2.32537 12.8077 2.44165 12.9231 2.79049 13.0385V12.9231C2.67421 12.8077 2.67421 12.8077 2.55793 12.6923Z" fill="#E7792B"/>
<path d="M6.51145 9.23077H6.39517L6.3946 9.34616C6.51088 9.34616 6.51145 9.34616 6.51145 9.23077Z" fill="#E7792B"/>
<path d="M53.6045 30.2308C53.6045 30.1154 53.6045 30 53.6045 30C53.6045 29.6538 53.7208 29.1923 53.8371 28.5C53.9533 27.8077 53.9533 27.3462 54.0696 27C54.1859 25.6154 53.8371 23.3077 53.1394 20.1923C53.0231 19.8462 52.7906 19.2692 52.4417 18.4615C52.3254 18.1154 52.2092 17.5385 52.0929 16.8462C51.9766 16.8462 51.9766 16.7308 51.8603 16.6154C51.6278 16.0385 51.2789 15.2308 50.8138 14.3077V14.1923C50.8138 14.0769 50.8138 14.0769 50.6975 13.9615C50.5813 13.8462 50.465 13.5 50.3487 13.0385C50.2324 13.0385 50.1161 13.0385 49.9999 12.9231C49.651 12.3462 48.9534 11.5385 48.0231 10.5C47.7906 10.2692 47.558 10.0385 47.4417 9.69231C46.9766 9.46154 46.8603 9.34615 46.8603 9.11538H46.9766C46.9766 9.11538 46.8603 9 46.8603 8.88462H46.5115C46.2789 8.65385 45.9301 8.30769 45.465 7.96154V7.73077H45.3487C45.3487 7.73077 45.3487 7.73077 45.2324 7.73077V7.5C45.1162 7.5 44.9999 7.5 44.7673 7.5V7.26923C44.4185 7.03846 43.9534 6.92308 43.372 6.69231V6.46154C43.372 6.46154 43.2557 6.46154 43.1394 6.46154C43.0231 6.46154 42.9069 6.46154 42.9069 6.46154V6.23077L42.7906 6.11538H42.6743V5.88461C42.558 5.88461 42.4418 5.88461 42.3255 5.88461C42.0929 5.88461 41.5115 5.53846 40.5813 5.07692C39.8836 4.73077 38.8371 4.26923 37.6743 3.69231L34.186 2.76923C33.7208 2.42308 32.5581 2.30769 31.279 2.07692V2.19231C31.279 2.19231 31.279 2.19231 31.279 2.30769C29.9999 2.30769 29.0697 2.30769 28.372 2.30769C27.9069 2.30769 26.0465 2.65385 22.9069 3.34615V3.46154C22.9069 3.46154 22.9069 3.46154 22.9069 3.57692C22.2093 3.92308 21.5116 4.26923 20.8139 4.73077C20.1162 5.07692 19.4186 5.30769 18.7209 5.19231C18.6046 5.19231 18.6046 5.19231 18.6046 5.07692C18.6046 4.96154 18.7209 4.84615 18.8372 4.73077C18.9535 4.5 19.0697 4.38461 19.0697 4.38461C19.0697 4.26923 18.9535 4.26923 18.8372 4.26923C18.6046 4.26923 18.2558 4.38461 17.9069 4.5C17.9069 4.5 17.9069 4.61538 17.9069 4.73077C17.9069 4.84615 17.9069 4.96154 17.9069 5.07692C17.9069 5.07692 17.7907 5.07692 17.7907 4.96154L17.6744 5.07692C17.6744 5.07692 17.5581 5.07692 17.5581 5.19231C17.5581 5.19231 17.5581 5.19231 17.5581 5.30769C17.7907 5.30769 17.9069 5.30769 18.0232 5.42308L17.9069 5.53846C17.7907 5.53846 17.6744 5.53846 17.6744 5.53846V5.65385H17.7907C17.7907 5.65385 17.7907 5.65385 17.9069 5.65385V5.76923L17.7907 5.88461C17.5581 5.53846 17.4418 5.65385 17.4418 5.65385V5.76923C17.4418 5.88461 17.2093 5.88461 16.8604 6C16.8604 6.11538 16.8604 6.23077 16.7442 6.34615L16.279 6.46154V6.57692H16.1628V6.69231H16.0465V6.80769H15.9302C15.9302 6.80769 15.9302 6.69231 15.9302 6.57692C15.8139 6.57692 15.8139 6.69231 15.6976 6.69231C15.8139 6.69231 15.8139 6.69231 15.8139 6.69231C15.8139 7.15385 15.3488 7.5 14.6511 7.61538V7.73077H14.5349V7.84615H14.4186C14.3023 8.07692 13.8372 8.30769 13.0232 8.53846V8.76923C12.6744 8.76923 12.5581 8.88461 12.5581 9.11538C12.5581 9.11538 12.5581 9.11539 12.5581 9.23077C12.7907 9.34615 12.7907 9.46154 12.7907 9.46154C12.7907 9.57692 12.7907 9.57692 12.6744 9.57692C12.6744 9.57692 12.4418 9.80769 12.2093 10.1538H12.093C12.093 10.2692 12.093 10.3846 11.9767 10.5H11.8605C11.8605 10.5 11.8605 10.5 11.7442 10.5L11.3953 11.0769C11.2791 11.0769 11.2791 11.0769 11.1628 11.0769C11.0465 10.9615 10.8139 10.7308 10.4651 10.5C10.3488 10.5 10.1163 10.3846 9.88371 10.2692L9.53488 9.69231C9.4186 9.11539 9.30232 8.88462 9.18604 8.88462L9.06976 9C9.06976 9.11539 9.06976 9.11539 9.06976 9.23077C9.06976 9.34615 9.06976 9.46154 8.95348 9.57692C8.83721 9.57692 8.72093 9.46154 8.48837 9.46154V9.57692C8.48837 9.57692 8.48837 9.57692 8.48837 9.69231H8.37209C8.13953 9.69231 8.13953 9.57692 8.13953 9.34615C8.13953 9.23077 8.25581 9 8.37209 8.65384C8.48837 8.65384 8.60465 8.76923 8.72093 8.76923C8.72093 8.65384 8.72093 8.42308 8.48837 8.19231C8.37209 7.96154 8.25581 7.84615 8.13953 7.84615C8.13953 7.84615 8.02325 7.84615 7.90698 7.96154V8.07692H7.7907C7.7907 8.07692 7.7907 8.07692 7.67442 8.07692C7.7907 8.07692 7.7907 8.30769 7.90698 8.53846H8.13953V8.65384C8.13953 8.76923 7.90698 8.76923 7.55814 8.76923C7.55814 8.88461 7.44186 8.88462 7.44186 8.88462C7.44186 8.88462 7.55814 9 7.7907 9C7.7907 9.11539 7.7907 9.34615 7.7907 9.46154C7.7907 9.69231 7.7907 9.92308 7.67442 10.1538H7.55814C7.55814 10.1538 7.55814 10.1538 7.44186 10.1538V10.2692C7.44186 10.3846 7.44186 10.3846 7.44186 10.5H7.55814V10.6154H7.67442V10.7308C8.02325 10.8462 7.90698 10.8462 7.7907 10.8462C7.67442 10.8462 7.44186 10.7308 7.32558 10.7308V10.8462H7.2093L7.09302 10.9615C7.32558 11.0769 7.32558 11.0769 7.32558 11.1923C7.32558 11.1923 7.32558 11.1923 7.2093 11.1923C7.09302 11.1923 7.09302 11.1923 7.09302 11.3077V11.4231H7.2093C7.2093 11.5385 7.2093 11.5385 7.09302 11.6538C6.97675 11.7692 6.97675 11.7692 6.97675 11.8846H7.09302C7.2093 11.8846 7.2093 11.8846 7.2093 12C7.2093 12.2308 6.97675 12.2308 6.74419 12.2308C6.74419 12.2308 6.51163 12.1154 6.1628 11.7692C5.81396 11.4231 5.5814 11.3077 5.34884 11.1923V11.0769H5.11629V10.9615C5.11629 10.9615 5.23257 10.8462 5.34884 10.8462C5.46512 10.7308 5.5814 10.7308 5.5814 10.6154H5.34884V10.3846L5.00001 10.2692V10.1538C5.00001 10.0385 5.00001 9.92308 5.11629 9.92308C5.11629 9.92308 5.11629 9.92308 5.00001 9.92308C4.76745 9.92308 4.65117 9.80769 4.65117 9.69231C4.65117 9.57692 4.76745 9.57692 4.76745 9.57692C4.88373 9.57692 4.88373 9.57692 4.88373 9.57692H5.00001C5.00001 9.46154 5.00001 9.34615 5.00001 9.23077H5.11629C5.11629 9.23077 5.11629 9.23077 5.23257 9.23077V9.11538C5.23257 9.11538 5.23257 9.11539 5.23257 9C5.23257 9 5.34884 9 5.46512 9C5.69768 9.11539 5.81396 9.11539 5.81396 9V8.88462H5.69768C5.69768 8.88462 5.5814 8.88462 5.46512 8.88462V8.53846H5.34884C5.34884 8.53846 5.34884 8.53846 5.23257 8.53846V8.88462H5.11629C5.11629 8.88462 5.11629 8.88461 5.11629 8.76923V8.42308H5.00001C5.00001 8.53846 4.88373 8.53846 4.76745 8.65384C4.65117 8.76923 4.53508 8.88462 4.53508 9C4.53508 9 4.65117 9.11539 4.65117 9.23077C4.76745 9.34615 4.76745 9.34615 4.76745 9.46154C4.65117 9.57692 4.30234 9.80769 3.72094 10.0385C3.60466 10.1538 3.37211 10.2692 3.02327 10.2692C2.67443 10.2692 2.44188 10.2692 2.44188 10.2692L2.3256 10.3846C2.3256 10.5 2.3256 10.5 2.44188 10.6154C2.55816 10.6154 2.55816 10.7308 2.67443 10.8462C2.67443 10.8462 2.67443 10.9615 2.55816 10.9615C2.55816 10.9615 2.55816 10.9615 2.55816 11.0769C3.25583 11.3077 3.60466 11.4231 3.60466 11.4231C3.60466 11.5385 3.48839 11.5385 3.37211 11.5385C3.25583 11.4231 3.13955 11.4231 3.02327 11.4231L2.90699 11.5385C2.90699 11.5385 2.90699 11.5385 2.90699 11.6538C3.02327 11.6538 3.25583 11.7692 3.60466 11.7692V11.8846H3.72094C3.72094 11.8846 3.72094 11.8846 3.83722 12C3.83722 12.3462 3.9535 12.5769 4.06978 12.5769C4.06978 12.5769 4.06978 12.5769 4.18606 12.5769V12.4615L4.30234 12.3462H4.41861C4.53489 12.3462 4.65117 12.4615 4.65117 12.5769C4.65117 12.6923 4.65117 12.8077 4.53489 12.9231H4.30234C4.30234 12.9231 4.30234 13.0385 4.30234 13.1538C4.30234 13.2692 4.30234 13.3846 4.30234 13.3846C4.18606 13.3846 4.18606 13.3846 4.06978 13.3846C3.9535 13.3846 3.83722 13.3846 3.72094 13.2692C3.48839 12.8077 3.48839 12.5769 3.48839 12.5769H3.37211V12.6923C3.25583 12.6923 3.13955 12.6923 3.02327 12.6923C3.02327 12.8077 3.02327 12.9231 2.90699 12.9231L2.79071 12.8077L2.79049 12.9231C2.79049 12.9231 2.79049 12.9231 2.79049 13.0385L3.02327 13.0385V13.1538H3.13955C3.25583 13.1538 3.25583 13.1538 3.37211 13.1538V13.0385C3.37211 13.0385 3.37211 13.0385 3.37211 12.9231C3.48839 12.9231 3.60466 12.9231 3.60466 12.9231C3.72094 12.9231 3.83722 12.9231 3.9535 13.0385V13.1538C3.9535 13.1538 3.9535 13.1538 3.9535 13.2692C4.06978 13.2692 4.06978 13.3846 4.18606 13.3846C4.30234 13.3846 4.30234 13.3846 4.41861 13.3846V13.2692L4.53489 13.1538C4.53489 13.1538 4.53489 13.0385 4.65117 13.0385C4.76745 13.0385 4.88373 13.1538 4.88373 13.3846C4.88373 13.5 4.88373 13.6154 4.76745 13.6154C4.65117 13.6154 4.65117 13.5 4.53489 13.5C4.41861 13.5 4.30234 13.5 4.18606 13.5V13.8462H4.06978C3.9535 13.8462 3.9535 13.8462 3.9535 13.7308V13.5C3.83722 13.5 3.83722 13.3846 3.72094 13.3846C3.60466 13.3846 3.48839 13.3846 3.48839 13.5C3.48839 13.6154 3.48839 13.7308 3.48839 13.8462H3.37211C3.25583 13.8462 3.13955 13.8462 2.90699 13.8462C2.90699 14.0769 2.79071 14.1923 2.55816 14.1923C2.55816 14.1923 2.44188 14.1923 2.44188 14.0769V13.8462C2.3256 13.8462 2.20932 13.9615 2.20932 14.1923C2.20932 14.4231 2.3256 14.5385 2.44188 14.5385H2.55816C2.55816 14.3077 2.67443 14.1923 2.67443 14.1923C2.67443 14.1923 2.67443 14.1923 2.67443 14.3077V14.4231L2.79071 14.5385C2.79071 14.5385 2.79071 14.5385 2.90699 14.5385V14.4231C3.02327 14.4231 3.13955 14.4231 3.13955 14.4231C3.25583 14.4231 3.25583 14.5385 3.25583 14.5385V14.6538C3.25583 14.6538 3.25583 14.6538 3.25583 14.7692H3.37211C3.48839 14.8846 3.48839 14.8846 3.60466 14.8846V15C3.60466 15 3.60466 15 3.60466 15.1154H4.53489V15.3462H4.65117L4.76745 15.4615V15.5769L4.65117 15.6923C4.53489 15.6923 4.41861 15.5769 4.30234 15.5769V15.6923C4.18606 15.5769 4.06978 15.5769 3.9535 15.5769C3.9535 15.6923 3.9535 15.8077 3.9535 15.9231H3.72094V16.1538H3.60466L3.48839 16.2692C3.60466 16.3846 3.72094 16.5 3.72094 16.3846L3.48839 16.8462C3.48839 16.8462 3.37211 16.8462 3.37211 16.7308H3.25583C3.25583 16.8462 3.13955 17.0769 3.13955 17.3077H3.02327C3.02327 17.4231 3.13955 17.4231 3.37211 17.5385V17.6538C3.37211 17.6538 3.37211 17.6538 3.25583 17.6538H3.02327V17.8846C3.02327 17.8846 3.02327 17.8846 2.90699 17.8846V17.4231L2.79071 17.3077C2.79071 17.3077 2.79071 17.3077 2.67443 17.3077V17.5385H2.55816L2.44188 17.6538C2.44188 17.6538 2.44188 17.6538 2.44188 17.7692H2.55816C2.55816 18 2.44188 18.1154 2.3256 18.2308V18.3462C2.3256 18.3462 2.20932 18.4615 2.20932 18.5769H2.3256C2.3256 18.5769 2.3256 18.5769 2.44188 18.5769C2.3256 18.6923 2.3256 18.8077 2.3256 19.1538H2.55816V19.2692C2.55816 19.3846 2.55816 19.5 2.44188 19.6154H2.3256C2.3256 19.7308 2.44188 19.7308 2.67443 19.8462C2.67443 19.9615 2.55816 20.0769 2.55816 20.1923H2.67443C2.67443 20.1923 2.67443 20.1923 2.79071 20.1923V20.3077L2.67443 20.4231H2.55816C2.44188 20.4231 2.44188 20.4231 2.44188 20.3077V20.1923H2.3256C2.3256 20.1923 2.3256 20.1923 2.20932 20.1923V19.9615L2.09304 19.8462C1.97676 19.8462 1.86048 20.0769 1.86048 20.4231H1.97676V20.5385C1.97676 20.5385 1.97676 20.5385 1.97676 20.6538C2.20932 20.6538 2.3256 20.7692 2.3256 20.8846C2.20932 20.8846 2.09304 21 1.97676 21.1154C1.97676 21.1154 1.97676 21.1154 1.97676 21.2308H2.20932V21.3462C2.20932 21.4615 2.09304 21.5769 1.86048 21.5769L1.74444 21.4615V21.5769C1.74444 21.5769 1.7442 21.5769 1.7442 21.6923C1.97676 21.6923 1.97676 21.8077 1.97676 21.8077H1.7442C1.7442 21.8077 1.7442 21.8077 1.62793 21.8077C1.62793 21.9231 1.62793 21.9231 1.7442 22.0385H1.86048C1.86048 22.0385 1.86048 22.0385 1.97676 22.0385V22.1538C1.97676 22.2692 1.97676 22.2692 1.86048 22.2692C1.86048 22.2692 1.7442 22.2692 1.7442 22.1538H1.62793C1.62793 22.2692 1.62793 22.2692 1.62793 22.3846C1.62793 22.5 1.62793 22.7308 1.51165 22.9615C1.39537 22.8462 1.27909 22.8462 1.16281 22.8462V23.0769C1.16281 23.0769 1.04653 23.0769 1.04653 22.9615C1.04653 22.9615 1.04653 22.9615 0.930254 22.9615C0.930254 23.0769 0.930254 23.0769 0.930254 23.0769C0.930254 23.4231 0.930254 23.6538 1.04653 23.6538H1.16281C1.16281 23.1923 1.16281 22.9615 1.27909 22.9615L1.39537 23.0769V23.1923C1.39537 23.3077 1.39537 23.3077 1.39537 23.3077C1.39537 23.3077 1.51165 23.1923 1.51165 23.0769C1.62793 22.9615 1.62793 22.8462 1.62793 22.8462C1.62793 22.8462 1.62793 22.8462 1.62793 22.9615V23.0769H1.7442L1.86048 23.1923V23.3077C1.86048 23.3077 1.86048 23.3077 1.86048 23.4231H1.97676C1.97676 23.4231 1.97676 23.4231 2.09304 23.4231C2.09304 23.5385 2.09304 23.5385 2.09304 23.6538C2.09304 23.8846 1.97676 23.8846 1.86048 23.8846C1.7442 23.8846 1.7442 23.8846 1.62793 23.7692V23.6538C1.51165 23.6538 1.51165 23.5385 1.51165 23.5385C1.39537 23.5385 1.27909 23.6538 1.27909 24H1.04653L0.930254 24.1154C0.930254 24.1154 0.930254 24.1154 0.930254 24.2308H1.16281C1.27909 24.5769 1.16281 24.6923 1.16281 24.9231C1.27909 25.0385 1.27909 25.0385 1.27909 25.0385H1.39537C1.27909 25.1538 1.27909 25.1538 1.27909 25.3846C1.27909 25.5 1.27909 25.6154 1.27909 25.7308H1.39537C1.51165 25.8462 1.51165 26.0769 1.51165 26.3077H1.62793C1.62793 26.3077 1.62793 26.3077 1.7442 26.3077V26.5385C1.86048 26.6539 1.97676 26.7692 1.97676 26.7692H2.09304C1.97676 26.6538 1.97676 26.5385 1.97676 26.3077H2.09304C2.20932 26.3077 2.3256 26.3077 2.44188 26.4231H2.20932C2.3256 26.4231 2.44188 26.5385 2.44188 26.6539L2.3256 26.7692H2.20932C2.20932 26.7692 2.20932 26.7692 2.09304 26.7692V26.8846C2.09304 27 2.20932 27.1154 2.44188 27.2308C2.67443 27.3462 2.79071 27.3462 2.79071 27.4615C2.79071 27.4615 2.79071 27.4615 2.67443 27.4615C2.55816 27.5769 2.3256 27.5769 2.3256 27.6923C2.3256 27.5769 2.3256 27.4615 2.44188 27.3462V27.2308H2.3256V27.3462C2.3256 27.4615 2.3256 27.4615 2.20932 27.4615L2.09304 27.5769V27.3462L1.97676 27.2308C1.97676 27.2308 1.97676 27.2308 1.86048 27.2308C1.86048 27.4615 1.7442 27.6923 1.62793 28.0385H1.51165C1.39537 28.0385 1.39537 28.0385 1.39537 28.0385C1.39537 28.1538 1.51165 28.1539 1.7442 28.1539V28.2692C1.7442 28.2692 1.7442 28.2692 1.62793 28.2692C1.51165 28.2692 1.39537 28.2692 1.16281 28.2692V28.3846H1.04653L0.930254 28.5C0.930254 28.5 0.930254 28.5 0.930254 28.6154C1.16281 28.7308 1.16281 28.7308 1.16281 28.7308L1.27909 28.8462C1.16281 28.9615 1.16281 29.0769 1.16281 29.1923C1.51165 29.1923 1.62793 29.1923 1.62793 29.3077C1.62793 29.3077 1.62793 29.4231 1.51165 29.4231H1.39537L1.27909 29.5385L1.86048 29.7692V29.8846C1.86048 29.8846 1.86048 29.8846 1.86048 30C1.7442 30 1.7442 29.8846 1.62793 29.8846C1.51165 29.8846 1.51165 29.8846 1.39537 29.8846C1.39537 29.8846 1.39537 30 1.39537 30.1154C1.39537 30.2308 1.39537 30.3462 1.27909 30.4615C1.27909 30.6923 1.16281 30.8077 1.16281 30.9231C1.51165 31.2692 1.97676 31.5 2.3256 31.5C2.90699 31.6154 3.25583 31.6154 3.37211 31.7308V31.8462C3.37211 31.8462 3.37211 31.8462 3.25583 31.8462C3.13955 31.8462 3.13955 31.8462 3.02327 31.9615C3.02327 32.1923 3.13955 32.4231 3.60466 32.5385C3.9535 32.8846 4.18606 33.1154 4.18606 33.3462L4.06978 33.4615C4.06978 33.4615 3.9535 33.4615 3.83722 33.4615C3.72094 33.4615 3.72094 33.4615 3.60466 33.3462C3.60466 33.2308 3.48839 33.2308 3.48839 33.1154C3.37211 33.3462 3.25583 33.4615 3.25583 33.6923C3.25583 33.8077 3.25583 34.0385 3.37211 34.1539H3.48839C3.48839 34.1539 3.48839 34.1539 3.60466 34.2692C3.72094 34.8462 4.06978 35.0769 4.53489 35.0769V34.9615C4.65117 35.0769 4.88373 35.1923 5.23257 35.1923C5.5814 34.9615 5.69768 34.7308 5.69768 34.2692C5.69768 33.9231 5.69768 33.5769 5.46512 33.2308C5.34884 33.2308 5.23257 33.2308 5.11629 33.2308C5.11629 33.1154 5.11629 33.1154 5.11629 33H5.00001V32.5385H4.88373C4.76745 32.5385 4.76745 32.5385 4.76745 32.4231C4.65117 32.1923 4.76745 32.1923 5.11629 32.1923C5.23257 32.1923 5.23257 32.3077 5.34884 32.3077C5.34884 32.3077 5.34884 32.4231 5.23257 32.4231C5.23257 32.5385 5.34884 32.5385 5.34884 32.6539H5.46512C5.34884 32.5385 5.34884 32.4231 5.34884 32.3077C5.46512 32.3077 5.46512 32.3077 5.5814 32.3077C5.81396 32.3077 5.93024 32.4231 5.93024 32.5385H5.69768C5.5814 32.5385 5.5814 32.5385 5.5814 32.5385V32.6539H5.69768V32.7692L5.81396 32.6539H5.69768L5.5814 32.7692L5.69768 32.8846C5.81396 32.8846 5.93024 32.8846 6.04652 32.8846C6.04652 33.2308 6.1628 33.4615 6.39535 33.4615C6.51163 33.4615 6.62791 33.2308 6.86047 32.7692H6.97675C7.09302 32.7692 7.09302 32.7692 7.09302 32.8846C7.2093 33.3462 7.44186 33.8077 7.55814 34.2692C7.55814 34.3846 7.44186 34.6154 7.44186 34.8462C7.44186 35.0769 7.44186 35.4231 7.44186 35.7692L7.7907 36.3462C7.90698 36.3462 8.02325 36.3462 8.25581 36.4615C8.95348 37.6154 9.65116 38.7692 10.3488 39.8077C10.3488 40.0385 10.4651 40.5 10.6977 40.9615C10.8139 40.9615 10.9302 40.9615 11.0465 41.0769C11.0465 41.1923 10.9302 41.3077 10.9302 41.4231C11.0465 41.3077 11.1628 41.3077 11.2791 41.3077C11.2791 41.6539 11.2791 42 11.5116 42.4615C11.8605 42.5769 12.4418 42.9231 13.2558 43.2692C13.4884 43.6154 14.0697 44.1923 14.8837 45C15.1163 45 15.4651 45.3462 15.9302 45.9231C16.0465 45.9231 16.0465 45.9231 16.1628 46.0385C16.279 46.0385 16.279 46.1539 16.279 46.2692C16.279 46.3846 16.0465 46.5 15.8139 46.7308C15.4651 46.8462 15.3488 47.0769 15.3488 47.3077C15.3488 47.7692 15.6976 48.1154 16.3953 48.1154C16.7442 48.1154 16.9767 47.8846 16.9767 47.4231C16.9767 46.7308 16.8604 46.3846 16.3953 46.2692H16.5116C16.8604 46.2692 17.4418 46.5 18.2558 46.8462C18.2558 46.9615 18.2558 47.1923 18.3721 47.4231H18.4883C18.6046 47.4231 18.7209 47.4231 18.8372 47.5385V47.6539C18.7209 48.2308 18.8372 48.6923 18.9535 48.9231C19.0697 49.1538 19.4186 49.3846 20 49.5C20 49.5 19.8837 49.5 19.8837 49.3846L20 49.2692H20.1162C20.1162 49.1538 20.1162 49.0385 20.1162 48.9231C20.1162 48.8077 20 48.5769 20.1162 48.5769C20.1162 48.4615 20.1162 48.3462 20.2325 48.2308C20.3488 48.2308 20.4651 48.3462 20.8139 48.4615V48.3462C21.0465 48.4615 21.3953 48.5769 21.8604 48.8077V48.6923L21.9767 48.5769C22.9069 48.6923 23.372 48.8077 23.372 49.1538V49.2692H23.1395V50.6539H23.2558C23.2558 50.6539 23.2558 50.6539 23.372 50.6539V50.4231H23.6046V50.3077C23.6046 50.3077 23.6046 50.3077 23.6046 50.1923C23.7209 50.1923 23.7209 50.1923 23.8372 50.1923C23.8372 50.1923 23.9534 50.1923 23.9534 50.3077C23.9534 50.4231 23.9534 50.4231 23.8372 50.5385V50.6539C24.0697 50.6539 24.186 50.4231 24.186 50.0769C24.3023 49.7308 24.4186 49.6154 24.5348 49.6154C24.4186 49.6154 24.6511 49.7308 25.2325 49.8462C25.3488 49.8462 25.5813 49.8462 25.8139 49.8462C26.0465 49.8462 26.3953 49.8462 26.7441 49.9615C26.7441 50.0769 26.7441 50.1923 26.7441 50.1923C27.2092 50.4231 27.6744 50.4231 28.1395 50.4231H28.4883C28.7209 50.3077 29.0697 50.1923 29.4185 50.1923V50.3077C29.4185 50.3077 29.4185 50.3077 29.4185 50.4231H29.6511V50.5385C29.6511 50.5385 29.6511 50.5385 29.6511 50.6539C29.7674 50.6539 29.7674 50.5385 29.7674 50.4231C29.8837 50.4231 29.8837 50.4231 29.9999 50.4231C30.1162 50.4231 30.1162 50.4231 30.2325 50.5385V50.7692C30.5813 50.7692 31.0464 50.7692 31.6278 50.7692V51H31.7441V50.8846C31.7441 50.8846 31.7441 50.8846 31.7441 50.7692C31.8604 50.7692 31.8604 50.8846 31.9767 50.8846C32.0929 50.8846 32.2092 50.8846 32.3255 50.8846C32.3255 50.7692 32.3255 50.6539 32.3255 50.5385C32.5581 50.5385 32.9069 50.4231 33.4883 50.3077C33.6046 50.3077 33.7208 50.4231 33.8371 50.4231C33.9534 50.4231 34.0697 50.4231 34.186 50.4231C34.186 50.1923 34.3022 49.9615 34.5348 49.7308H34.6511C34.9999 49.8462 35.5813 49.7308 36.3953 49.5C36.3953 49.2692 36.6278 49.0385 37.0929 48.8077V48.9231C37.2092 48.9231 37.2092 49.0385 37.3255 49.0385C37.4418 49.0385 37.558 48.9231 37.9069 48.6923C38.2557 48.4615 38.4883 48.3462 38.8371 48.3462C39.0697 48.3462 39.186 48.4615 39.186 48.5769C39.186 48.6923 39.3022 48.8077 39.3022 48.8077C39.4185 48.8077 39.6511 48.5769 39.8836 48.2308H39.9999V48.1154C39.9999 48 39.9999 48 40.1162 47.8846C40.6976 47.8846 41.1627 47.8846 41.279 47.6539C41.5115 47.4231 41.7441 47.3077 41.9766 47.3077V47.1923L42.0929 47.0769C42.2092 46.9615 42.3255 46.9615 42.4418 46.9615C42.6743 46.9615 42.9069 47.0769 43.0231 47.1923C43.0231 47.0769 43.1394 47.0769 43.2557 46.9615C43.2557 46.9615 43.6045 46.7308 44.4185 46.3846C44.4185 46.2692 44.4185 46.0385 44.4185 45.8077C44.4185 45.8077 44.5348 45.6923 44.651 45.6923L44.8836 45.8077V46.0385L44.9999 46.1538H45.1162C45.1162 46.0385 45.1162 46.0385 45.1162 45.9231C45.1162 45.8077 45.1162 45.8077 45.2324 45.6923C45.2324 45.5769 45.3487 45.5769 45.465 45.5769C45.5813 45.5769 45.5813 45.6923 45.6976 45.6923C45.6976 45.8077 45.5813 45.9231 45.5813 46.0385C45.6976 45.9231 45.8138 45.8077 45.8138 45.5769H45.5813V45.4615C45.8138 45.4615 45.9301 45.3462 46.0464 45.2308V45.1154H45.9301C45.6976 45.1154 45.6976 45 45.6976 45L45.8138 44.8846H46.0464C46.2789 44.8846 46.3952 44.8846 46.5115 45V45.2308H46.6278C46.6278 45.1154 46.5115 45 46.5115 44.8846H46.7441V44.7692H46.6278C46.5115 44.7692 46.5115 44.7692 46.5115 44.6538L46.6278 44.5385H46.7441C46.7441 44.5385 46.7441 44.5385 46.8603 44.5385V44.4231C46.8603 44.4231 46.8603 44.3077 46.9766 44.3077C46.9766 44.1923 47.0929 44.1923 47.0929 44.1923C47.2092 44.1923 47.2092 44.1923 47.3255 44.3077V44.4231H47.4417C47.4417 44.4231 47.4417 44.4231 47.558 44.4231V44.3077L47.7906 44.1923C47.7906 44.0769 47.7906 44.0769 47.9068 43.9615C48.0231 44.0769 48.2557 44.0769 48.7208 44.1923C48.7208 44.0769 48.7208 44.0769 48.8371 44.0769C49.1859 43.9615 49.5348 43.8462 49.7673 43.8462C49.7673 43.8462 49.7673 43.8462 49.8836 43.8462V43.7308C49.8836 43.7308 49.7673 43.7308 49.651 43.7308C49.5348 43.7308 49.4185 43.7308 49.3022 43.7308V43.6154C49.1859 43.6154 49.1859 43.6154 49.1859 43.5C49.1859 43.3846 49.3022 43.3846 49.5348 43.3846C49.5348 43.3846 49.5348 43.3846 49.651 43.3846C49.651 43.3846 49.651 43.5 49.5348 43.5C49.5348 43.5 49.651 43.5 49.651 43.6154C49.651 43.6154 49.651 43.7308 49.7673 43.7308C49.8836 43.7308 49.8836 43.7308 49.9999 43.6154V43.5C49.9999 43.5 49.9999 43.5 49.9999 43.3846C50.465 43.3846 50.6975 43.2692 50.6975 43.0385H50.5813V42.8077C50.465 42.8077 50.3487 42.8077 50.1161 42.8077C49.9999 42.6923 49.9999 42.6923 49.9999 42.5769C49.9999 42.4615 50.1161 42.3462 50.2324 42.3462C50.465 42.4615 50.5813 42.5769 50.8138 42.6923C50.6975 42.5769 50.6975 42.3462 50.6975 42H50.8138C50.9301 42 50.9301 42 50.9301 42.1154C50.8138 42.9231 50.9301 43.3846 51.2789 43.3846C51.6278 43.3846 51.744 43.3846 51.744 43.1538V43.0385H51.5115C51.5115 42.9231 51.5115 42.9231 51.5115 42.8077C51.5115 42.6923 51.5115 42.5769 51.5115 42.5769H51.2789C51.2789 42.4615 51.2789 42.4615 51.2789 42.3462C51.2789 42.2308 51.2789 42.2308 51.3952 42.1154H51.5115C51.5115 42 51.3952 42 51.2789 41.8846V42C51.2789 42 51.2789 42 51.2789 42.1154C51.1627 42.1154 51.0464 42 51.0464 41.8846H51.1627V41.7692C51.1627 41.7692 51.1627 41.7692 51.1627 41.6539H51.2789C51.2789 41.5385 51.2789 41.5385 51.2789 41.5385H51.5115C51.5115 41.4231 51.3952 41.4231 51.3952 41.3077V41.4231C51.3952 41.4231 51.3952 41.4231 51.3952 41.5385C51.3952 41.5385 51.2789 41.5385 51.2789 41.4231C51.2789 41.4231 51.2789 41.4231 51.1627 41.4231V41.1923H51.0464C51.0464 41.1923 51.0464 41.1923 50.9301 41.1923V41.4231H50.8138C50.8138 41.4231 50.8138 41.4231 50.6975 41.4231V41.5385H50.5813C50.465 41.5385 50.465 41.4231 50.2324 41.0769C50.1161 40.7308 49.9999 40.6154 49.8836 40.5C49.9999 40.5 50.1161 40.5 50.2324 40.3846C50.2324 40.1538 50.3487 39.6923 50.465 39.2308H50.6975V39.1154C50.6975 39.1154 50.6975 39.1154 50.6975 39C50.6975 39 50.5813 39 50.465 39C50.5813 38.8846 50.9301 38.6539 51.2789 38.1923C51.3952 37.9615 51.5115 37.6154 51.6278 37.2692H51.744C51.6278 37.1538 51.6278 36.9231 51.6278 36.8077C51.6278 36.6923 51.744 36.5769 51.8603 36.3462C51.9766 36.1154 52.0929 36 52.0929 36C52.2092 35.5385 52.3254 34.9615 52.4417 34.0385H52.6743V33.8077C52.6743 33.3462 52.7906 32.8846 52.9068 32.1923C53.1394 31.5 53.2557 30.9231 53.2557 30.6923C53.6045 30.4615 53.6045 30.3462 53.6045 30.2308ZM4.41861 10.0385C4.41861 9.92308 4.41861 9.92308 4.41861 10.0385C4.41861 9.92308 4.53489 9.92308 4.53489 9.92308C4.41861 9.92308 4.41861 10.0385 4.41861 10.0385ZM3.9535 14.1923V14.0769H4.06978L3.9535 14.1923ZM3.13955 18.2308C3.13955 18.1154 3.13955 18.1154 3.25583 18.1154L3.13955 18.2308ZM2.90699 18.3462C2.90699 18.4615 2.90699 18.4615 2.90699 18.3462C2.79071 18.3462 2.79071 18.3462 2.79071 18.3462H2.90699ZM2.55816 20.0769C2.55816 19.9615 2.55816 19.9615 2.55816 19.8462C2.55816 19.9615 2.55816 20.0769 2.55816 20.3077C2.55816 20.1923 2.55816 20.1923 2.55816 20.0769ZM2.09304 25.2692C2.09304 25.3846 2.20932 25.3846 2.09304 25.2692V25.2692ZM2.09304 25.6154C1.97676 25.6154 1.97676 25.6154 2.09304 25.6154C2.09304 25.5 1.97676 25.5 2.09304 25.6154ZM1.7442 25.7308V25.6154C1.86048 25.6154 1.86048 25.7308 1.97676 25.7308C1.86048 25.7308 1.86048 25.8462 1.7442 25.7308ZM1.97676 24.6923C1.97676 24.8077 1.97676 24.8077 1.97676 24.9231H1.86048V25.1538C1.7442 25.0385 1.7442 25.0385 1.51165 25.0385L1.62793 24.9231C1.62793 24.8077 1.7442 24.5769 1.86048 24.3462H1.97676C2.3256 24.3462 2.44188 24.4615 2.44188 24.6923L2.3256 24.8077C2.3256 24.8077 2.20932 24.8077 2.20932 24.6923C2.09304 24.5769 1.97676 24.6923 1.97676 24.6923ZM2.44188 24.6923C2.3256 24.5769 2.3256 24.3462 2.3256 24.2308V24.1154C2.3256 24 2.3256 24 2.44188 23.8846C2.44188 24 2.44188 24.3462 2.44188 24.6923ZM2.67443 23.4231C2.67443 23.1923 2.67443 23.1923 2.90699 23.1923C2.79071 23.3077 2.79071 23.4231 2.67443 23.4231ZM3.13955 21.1154C3.02327 21.1154 2.90699 21.1154 2.90699 21C3.02327 21 3.02327 21 3.02327 21C3.02327 21 3.13955 21 3.13955 21.1154ZM3.25583 24.5769C3.25583 24.4615 3.37211 24.4615 3.48839 24.4615C3.37211 24.5769 3.37211 24.5769 3.25583 24.5769ZM4.76745 15C4.76745 14.8846 4.76745 14.7692 4.76745 14.6538C4.88373 14.6538 4.88373 14.7692 4.76745 15ZM5.46512 11.5385C5.34884 11.5385 5.34884 11.4231 5.34884 11.3077C5.34884 11.4231 5.46512 11.5385 5.46512 11.5385ZM4.76745 10.6154L4.88373 10.5C4.88373 10.5 4.76745 10.5 4.76745 10.6154ZM5.11629 10.9615C5.11629 11.0769 5.23257 11.0769 5.23257 11.1923C5.11629 11.1923 5.11629 11.0769 5.11629 10.9615ZM5.34884 19.6154L5.23257 19.5C5.34884 19.5 5.46512 19.5 5.34884 19.6154ZM5.34884 14.6538L5.46512 14.5385C5.46512 14.5385 5.46512 14.5385 5.34884 14.6538ZM6.51163 13.3846C6.51163 13.5 6.39535 13.6154 6.27907 13.6154C6.27907 13.5 6.39535 13.3846 6.51163 13.3846ZM6.74419 16.0385C6.62791 15.9231 6.62791 15.9231 6.62791 15.9231C6.62791 15.8077 6.62791 15.8077 6.74419 15.8077C6.86047 15.8077 6.86047 15.8077 6.97675 15.8077C7.09302 15.8077 7.09302 15.8077 7.09302 15.9231C6.86047 16.0385 6.86047 16.0385 6.74419 16.0385ZM7.32558 14.3077C7.32558 14.4231 7.32558 14.4231 7.32558 14.3077V14.3077ZM7.32558 15.8077V15.6923C7.32558 15.5769 7.32558 15.4615 7.44186 15.4615C7.44186 15.4615 7.44186 15.5769 7.32558 15.8077ZM9.99999 19.3846L10.1163 19.2692C10.1163 19.3846 10.1163 19.3846 9.99999 19.3846ZM11.7442 17.8846C11.8605 17.8846 11.8605 17.8846 11.7442 17.8846V17.8846ZM12.4418 25.9615C12.5581 25.9615 12.5581 25.9615 12.6744 26.0769L12.4418 25.9615C12.4418 26.0769 12.4418 26.0769 12.4418 25.9615ZM8.83721 10.5C8.83721 10.6154 8.83721 10.7308 8.95348 10.7308C8.83721 10.7308 8.83721 10.7308 8.83721 10.5C8.83721 10.6154 8.83721 10.6154 8.83721 10.5ZM8.60465 23.4231C8.48837 23.4231 8.48837 23.4231 8.60465 23.4231V23.4231ZM8.25581 11.6538C8.25581 11.6538 8.37209 11.7692 8.37209 11.8846V12C8.25581 11.8846 8.25581 11.7692 8.25581 11.7692V11.6538Z" fill="#E7792B"/>
<path d="M6.62772 8.76923L6.39517 8.65385C6.39517 8.65385 6.39517 8.76923 6.39517 8.88462C6.39517 9 6.3946 9.11539 6.3946 9.11539L6.51145 9.11539L6.62772 8.76923Z" fill="#E7792B"/>
<path d="M40.8134 4.5C40.8134 4.5 40.8134 4.61539 40.6971 4.73077C40.8134 4.73077 40.9296 4.73077 40.9296 4.73077C41.0459 4.61539 40.9296 4.5 40.8134 4.5Z" fill="#E7792B"/>
<path d="M5.34906 10.2692C5.46534 10.2692 5.58162 10.2692 5.58162 10.2692C5.58162 10.6154 5.58162 10.7308 5.6979 10.8462C5.81418 10.8462 5.93046 10.6154 6.16301 10.0385H6.04674C6.04674 10.0385 6.04674 10.0385 5.93046 10.0385V9.8077C5.6979 9.8077 5.58162 9.8077 5.58162 9.92308H5.6979C5.6979 10.0385 5.58162 10.0385 5.34906 10.0385C5.11651 10.0385 5.00001 9.92308 5.00001 9.92308C5.00001 9.92308 5.00001 9.92308 5.11629 9.92308C5.11629 9.92308 5.23278 9.92308 5.34906 9.8077V9.69231L5.23278 9.8077H5.11651L5.11629 9.92308L5.23278 9.92308C5.23278 10.0385 5.23278 10.1539 5.34906 10.2692Z" fill="#E7792B"/>
</svg>
