<svg width="203" height="25" viewBox="0 0 203 25" fill="none" xmlns="http://www.w3.org/2000/svg">
<path d="M193.356 12.3234L193.144 12.4326V12.5418L192.826 18.4936H193.515C195.635 18.4936 196.694 17.5653 196.694 15.6542V14.8898C196.747 13.1971 195.635 12.3234 193.356 12.3234ZM194.098 3.15002L193.568 8.88339H194.098C196.217 8.88339 197.277 7.90052 197.277 5.88019L197.118 5.77099V5.66178L197.277 5.27955C197.277 3.85986 196.217 3.15002 194.098 3.15002ZM187.103 0.747462L192.296 0.802065L195.688 0.911272L195.899 0.802065H196.058L196.747 0.911272H197.489L198.39 0.802065V0.911272L198.549 0.802065C200.457 0.802065 201.781 1.73033 202.629 3.53224C202.788 3.91447 203 4.4605 203 5.27955C203 7.4637 201.993 8.99259 199.98 9.86625C199.079 10.2485 198.284 10.4669 197.489 10.4669V10.5761C199.026 10.5761 200.615 11.4498 202.099 13.3063C202.523 13.8523 202.629 14.4529 202.629 15.0536V16.1457C202.629 18.9304 200.615 21.4422 196.058 21.8244L194.469 21.9882C191.236 22.2613 189.011 21.8244 187.898 21.606L187.58 21.5514L187.527 21.333V20.7324L187.05 19.2581L187.739 10.5761L187.103 10.5215V0.747462Z" fill="white"/>
<path d="M88.9152 9.21101L88.9682 9.48403C89.1271 10.7945 90.1869 12.4872 92.2005 14.5076L92.5184 15.0536L92.4124 15.2174V15.3266L92.5714 15.4358V15.545C92.4654 16.5279 92.2535 17.0739 91.9355 17.2377L91.7236 17.2923C91.4056 17.1831 91.1937 16.9647 91.1937 16.7463L91.2467 15.4358L88.3853 14.9444L88.1203 16.6917L88.2263 16.8009L88.2793 17.0193L88.1733 17.1831C88.2793 18.2752 89.1801 19.2035 90.8228 19.8587L92.4124 20.0225C94.7969 19.6949 95.8037 17.9476 95.4328 14.7806C95.2738 14.0161 94.267 12.5964 92.4654 10.5761L92.0945 9.26561C91.9355 8.00973 92.2005 7.29989 92.8893 7.24528L93.4192 7.5729L93.2602 9.53863L96.2276 9.86625L96.1746 9.59323H96.2806L96.1216 9.48403V9.37482L96.2276 8.39196L96.1216 7.68211L96.2276 7.5729C95.4328 5.33416 93.8961 4.35129 91.5116 4.67892C90.1869 4.84273 89.3391 5.77099 88.9152 7.5729V9.21101ZM100.414 1.78493V15.7088C100.414 16.4187 99.5659 17.1285 99.6719 17.8384V17.9476L100.202 18.985C100.255 22.0974 100.096 23.954 99.7249 24.5C92.6244 24.0086 87.8024 23.4625 87.1665 23.1895L87.3785 1.78493H100.414ZM73.4954 0.529048C74.7672 0.529048 75.7739 0.802065 76.4628 1.2935V0.965876H76.6748V1.18429L76.5688 1.2935V1.4027C77.4166 1.94874 78.0525 3.04081 78.4764 4.62431L78.9003 8.11894L78.7943 8.22815H78.6883L75.1381 8.44656C74.8731 5.60718 74.3432 4.18748 73.6544 4.18748H73.1245C72.3827 4.4605 72.0647 5.00654 72.0647 5.82559V6.26242C72.0647 7.73671 73.3365 9.75704 75.8799 12.4326C77.6815 14.6168 78.5824 16.9101 78.5824 19.3673H78.4764L78.5824 19.4765L78.2644 21.333L78.3704 21.6606C78.1584 21.6606 78.0525 21.8244 78.0525 22.0974C77.0457 23.6263 75.774 24.3908 74.1843 24.3908H73.6544C71.8528 24.3908 70.4751 23.7902 69.5743 22.6435C68.8854 22.5343 68.4085 20.9508 68.1965 17.7838C69.0444 17.5653 70.3161 17.4015 71.9058 17.3469C72.1707 19.8041 72.5946 21.06 73.1775 21.06H73.7074C74.2373 20.8416 74.4492 20.2409 74.4492 19.3127C74.4492 17.4561 73.1775 15.3266 70.581 12.924C68.7794 10.9037 67.9316 8.93799 67.9316 6.97226V6.64464C67.7197 6.64464 67.6137 6.59004 67.6137 6.42623V6.37163H67.9316V5.71638C67.9316 2.9316 69.4683 1.23889 72.4886 0.529048H73.4954ZM60.6721 7.24528V7.40909L60.9371 7.68211V7.02687L60.6721 7.24528ZM48.8556 9.86625H48.9616L53.8896 9.97546V9.86625L53.6246 8.77418L53.7306 8.61037V8.50116C53.4127 7.02687 52.7238 6.31702 51.6111 6.31702H51.3461C50.1274 6.31702 49.2796 7.5183 48.8556 9.86625ZM60.6721 5.22495H61.0431V5.49797H60.8841L60.6721 5.22495ZM59.7183 4.78812H59.9833V5.06114H59.4534L59.7183 4.78812ZM60.8841 4.24209V4.62431H60.7251L60.4602 4.3513V4.24209H60.8841ZM50.6043 0.583651H52.035C53.7306 0.583651 55.4263 1.23889 57.2279 2.49477L58.3936 3.85986L58.5526 3.69605H58.7116L58.8175 4.67892L58.9765 4.56971H59.2415V4.84273L59.0825 5.00654V5.11574L59.2415 5.27955H59.4004L59.5064 5.11574V5.49797L59.4004 5.66178L60.3012 7.40909L60.1953 8.22815L60.4602 8.50116C60.4602 8.11894 60.5662 7.95513 60.7251 7.95513L60.4602 6.86306H60.9901L61.255 7.13607V7.95513L60.7251 8.11894L60.8311 8.22815V8.50116L60.3012 8.61037V8.99259H60.7251L60.4602 9.26561L60.5662 11.9958V14.0707L60.4602 14.1799V14.2891L48.8027 14.0161C48.8027 16.0365 49.6505 17.2923 51.3461 17.8384L51.982 17.9476C53.3597 17.9476 54.7904 17.2377 56.3271 15.7634L60.3012 19.4765C58.4466 22.2066 55.3203 23.5717 50.9222 23.5717V23.6809C48.1138 23.1349 46.1002 22.2613 44.8285 21.1146C43.7687 20.0771 43.2388 19.0942 43.2388 18.1114L43.1329 17.9476L43.2388 17.2377L43.1329 16.8555C43.2918 16.8555 43.3978 16.5825 43.3978 16.0365H43.4508L43.3448 15.6542L43.4508 15.4904V15.3812L43.3448 14.9444L43.4508 14.8352L43.1859 14.5622V14.3983H43.4508V14.2891L43.3448 14.1799L43.4508 14.0707V13.9069L43.3448 13.3609L43.4508 13.2517H43.5568L43.4508 13.0879V12.9787L43.7157 12.7056L43.4508 11.8866C43.1858 11.8866 43.0799 11.7774 43.0799 11.6136C43.0799 11.4498 43.2388 11.3405 43.6098 11.3405L43.4508 11.2313V11.0675L43.7157 10.7945L43.3448 9.0472L44.1397 8.77418V8.61037L43.4508 7.5183V7.13607L43.5568 7.02687L43.4508 6.86306V6.75385C43.8217 6.26242 43.9807 5.88019 43.9807 5.49797L43.6098 5.11574L43.9807 4.95193L43.7157 4.67892C44.6166 2.98621 46.3122 1.73033 48.9086 0.856669L50.6043 0.583651ZM26.0705 5.49797L25.6996 7.73671L26.0705 11.5044H27.5542C29.7267 11.5044 30.9454 10.7399 31.2104 9.26561C31.2104 6.75385 29.8857 5.49797 27.1832 5.49797H26.0705ZM23.8979 2.49477C30.4685 2.8224 33.7538 4.24209 33.7538 6.64464L33.3829 7.02687V7.40909L33.7538 8.88339H33.3829L33.7538 9.26561V9.64784L31.5283 13.7977H29.3028L34.0718 23.2441V24.0086L33.7009 23.6263L33.3299 24.0086H32.959L32.5881 23.6263L32.3232 24.0086H31.9522C31.5283 23.954 30.0446 21.5514 27.5542 16.8555C27.0773 16.8009 26.7063 15.9272 26.4414 14.2345H25.6996V15.3812L26.0705 18.0022L25.6996 21.4422V23.2987L24.9577 24.0632H23.1031V20.2955L22.7852 19.8587L23.1561 19.4765V10.4123L23.527 8.17354L23.1561 7.79132V7.40909L23.8979 2.49477Z" fill="white"/>
<path d="M6.09371 5.38876V5.49797L6.1467 8.93799L6.04072 9.0472L6.09371 9.64784L6.04072 10.1393L6.35865 10.1939L6.46463 10.0847H6.57061V10.1939C7.73636 10.1393 8.26625 9.75704 8.37223 9.15641L8.58418 8.00973C8.84913 6.64464 8.21326 5.77099 7.20647 5.38876L7.1005 5.49797H6.99452L6.88854 5.33416L6.78256 5.44337L6.09371 5.38876ZM9.22005 0.529048C11.9225 0.638255 14.148 1.94874 14.6249 4.4059L15.1018 6.80845L14.9958 6.91766L15.0488 8.82878C14.7839 9.97546 14.5189 11.2313 13.7241 12.2688C12.2404 14.2891 9.53798 14.999 6.09371 14.6714V14.7806L6.1467 22.9165L0 23.0803V0.856669C3.33829 0.638255 6.30566 0.419841 9.22005 0.529048Z" fill="white"/>
<path d="M176.982 17.1831H177.141L177.247 17.62H177.141L176.982 17.4015V17.1831ZM177.035 11.8866H177.247L177.353 12.2688H177.141L177.035 11.8866ZM176.771 5.9348H176.877V6.15321L176.665 6.37163L176.559 6.26242V6.15321L176.771 5.9348ZM176.771 5.33416H176.877L177.089 5.55257V5.77099L176.877 5.9894L176.771 5.33416ZM170.783 2.60398L170.995 2.8224L170.889 12.5964L170.783 13.4155L170.889 13.5247L170.783 14.0161V17.9476L170.677 18.3298L170.783 18.7666V19.5857C170.783 20.787 171.154 21.3876 171.949 21.3876C172.69 21.3876 173.008 19.9133 173.008 16.9647L173.114 8.11894H173.22L173.114 8.00973L173.22 7.5183V2.8224L173.432 2.60398H176.241V2.8224C176.135 3.09541 175.923 3.20462 175.764 3.20462V3.31383H175.923V3.42303L175.764 3.69605C176.082 3.69605 176.241 3.80526 176.241 3.91447L176.135 4.18748H176.241L176.506 4.4059C176.4 4.73352 176.241 4.89733 176.135 4.89733L176.241 5.00654V5.22495C175.87 5.22495 175.658 5.27955 175.658 5.38876C175.87 5.38876 175.923 5.44337 175.923 5.60718L175.817 5.88019L175.923 5.9894L175.764 6.20782L175.87 6.31702H175.976L176.294 6.09861L176.506 6.48083L176.4 6.80845H176.665L176.453 6.97226V6.91766C176.294 6.91766 176.135 7.13608 175.87 7.5183L176.082 7.73671L175.87 8.55577L176.453 9.0472V9.21101C176.135 9.48403 175.976 9.81165 175.976 10.0301V10.6307C176.241 10.6307 176.4 10.6853 176.4 10.8491L176.294 10.9583V11.0675C176.559 11.0675 176.665 11.3405 176.665 11.7774V11.8866L176.559 12.2688L176.665 12.5964H176.559L176.665 12.7056V14.2345L176.771 14.6168L176.559 16.2003L176.665 16.5279H176.559L176.665 16.8009L176.559 17.1831L176.665 17.62H176.559L176.665 17.6746C176.665 22.2613 175.128 24.5 172.108 24.5H171.896C168.663 24.5 166.968 22.6981 167.021 19.0942L167.286 2.71319L167.392 2.60398H170.783ZM155.522 11.3405V12.7056H155.628V11.3405H155.522ZM155.469 8.06434V8.66497H155.575V8.06434H155.469ZM155.363 4.51511L155.575 6.09861H155.681V4.73352L155.469 4.51511H155.363ZM147.415 2.38557V20.1317H156.052V16.6917H151.389L151.177 16.4733V2.38557H147.415ZM144.5 0.529048C147.945 0.583651 150.912 0.747462 150.912 0.965876V1.07508C151.177 0.856669 151.389 0.747462 151.654 0.747462L152.343 0.856669H152.555V0.747462L153.773 0.856669H156.317L156.423 1.4027L156.264 1.45731V1.56651L156.476 2.11255H156.37L156.052 1.89414H155.151V3.25922L155.257 3.15002L155.363 3.25922H156.476L156.582 3.15002H156.688L157.006 4.18748V5.77099L156.9 7.95513L157.006 8.06434V8.17354L156.9 8.61037L157.006 14.7806V20.5685C157.006 22.152 156.9 22.9711 156.688 22.9711H156.476L156.158 22.7527H155.363L155.045 22.9711H154.197L153.879 22.7527H152.873L152.555 22.9711H151.548L151.23 22.7527H150.541C150.276 22.9711 149.799 23.0803 149.11 23.0803H144.447L144.235 22.8619V0.747462L144.5 0.529048ZM119.914 13.9615C119.596 18.712 121.768 21.9882 125.636 23.4079C126.908 23.8994 128.233 23.954 129.505 23.954H129.717C133.214 23.954 135.545 21.879 136.711 17.6746V17.5653L132.154 15.4904C131.412 17.9476 130.405 19.2035 129.028 19.2035H128.763C126.431 19.2035 125.265 17.5653 125.265 14.2891C125.265 11.1221 125.954 8.9926 127.385 7.90052C127.756 7.62751 128.286 7.35449 129.028 7.35449C130.511 7.29989 131.571 8.28275 132.313 10.1939V10.5761L137.188 9.75704C136.552 7.08147 135.545 5.11574 134.168 4.18748C132.578 3.09541 130.935 2.65859 129.293 2.65859H127.915C123.835 2.65859 120.602 5.22495 120.232 10.5761L119.914 13.9615Z" fill="white"/>
</svg>
