<svg width="156" height="74" viewBox="0 0 156 74" fill="none" xmlns="http://www.w3.org/2000/svg">
<path fill-rule="evenodd" clip-rule="evenodd" d="M43.5951 0.164062L45.9785 21.6142L39.0213 22.3872L37.4047 7.83736L28.1582 8.78793L9.03618 46.1449L20.71 64.1954L44.6836 49.087L58.0429 23.7041L79.1211 26.5554L77.7333 52.6128L85.7057 60.7636L104.933 25.8136L111.5 27.5007V60.8953L123.036 55.076L131.124 25.5752L137.875 27.4262L131.939 49.0758L143.867 40.7335L155.473 55.5329L141.089 73.3411L125.625 61.6098L104.5 72.2668V41.1237L87.2941 72.3985L73.8671 58.6709L56.2703 72.7175L46.2179 56.3942L18.5892 73.806L0.963623 46.5529L23.6598 2.2135L43.5951 0.164062ZM51.3704 51.4117L58.0838 62.3131L70.7451 52.2063L71.7878 32.6271L61.9569 31.2973L51.3704 51.4117ZM131.942 57.6157L139.91 63.6603L146.527 55.4686L142.448 50.2679L131.942 57.6157Z" fill="#97E9ED"/>
</svg>
